<svg version="1.1" id="Layer_1" xmlns="http://www.w3.org/2000/svg" xmlns:xlink="http://www.w3.org/1999/xlink" x="0px" y="0px" width="100%" viewBox="170 130 710 710" xml:space="preserve" >
<path fill="#000000" opacity="1.000000" stroke="none" d="
M464.000000,578.230957 
	C454.364532,577.828491 445.202209,578.975220 436.077393,577.388977 
	C416.061127,573.909485 401.676910,557.097717 401.667023,536.774475 
	C401.640045,481.279724 401.635254,425.784973 401.670410,370.290222 
	C401.684387,348.202576 418.767761,329.945312 440.754486,328.685669 
	C462.229279,327.455353 483.718964,329.032135 505.206726,328.629883 
	C552.177124,327.750580 599.152344,328.823181 646.122681,328.500183 
	C666.113220,328.362732 686.093079,328.257477 706.083740,328.540466 
	C730.518311,328.886322 749.235413,347.235443 749.261047,371.589233 
	C749.318726,426.250641 749.331604,480.912170 749.273804,535.573608 
	C749.249146,558.857666 729.754272,578.248108 706.477234,578.252563 
	C625.818176,578.268066 545.159058,578.241943 464.000000,578.230957 
M442.673798,427.646576 
	C445.896545,431.430420 449.451019,431.180237 453.298187,428.627625 
	C466.197388,420.068909 479.186615,411.644043 492.006897,402.969086 
	C497.407440,399.314758 497.118500,393.182739 491.588043,389.458710 
	C482.197754,383.135559 472.751556,376.894836 463.294006,370.672455 
	C459.680389,368.294983 456.076050,365.866730 452.270111,363.830505 
	C449.482056,362.338867 446.402008,362.461426 443.790466,364.530151 
	C441.468567,366.369446 440.890228,368.988678 441.521851,371.752258 
	C442.162659,374.555847 444.423248,376.088348 446.692596,377.563293 
	C454.507721,382.642700 462.326141,387.717957 470.079376,392.890594 
	C471.489899,393.831635 473.532745,394.356689 473.701385,397.051788 
	C464.473541,403.279053 455.134094,409.632507 445.737183,415.899872 
	C441.517090,418.714508 440.132172,422.281097 442.673798,427.646576 
M556.936584,428.771149 
	C560.223572,426.782166 561.501404,423.874573 560.157349,420.287994 
	C558.853821,416.809357 556.008545,415.317963 552.295288,415.324738 
	C538.998291,415.348999 525.701050,415.292236 512.404175,415.338501 
	C506.466431,415.359192 503.228027,418.142609 503.366669,422.871765 
	C503.497498,427.332550 506.700470,429.811371 512.448914,429.823517 
	C525.246948,429.850555 538.044922,429.853271 550.842957,429.856323 
	C552.663635,429.856781 554.511414,430.011871 556.936584,428.771149 
z"></path>
<path fill="#000000" opacity="1.000000" stroke="none" d="
M772.777832,695.643005 
	C771.467041,699.835205 770.439209,703.703979 769.101990,707.462708 
	C766.685547,714.255249 759.570129,715.713501 755.048889,710.110779 
	C750.453552,704.416199 746.278381,698.368103 742.146667,692.319458 
	C739.874695,688.993286 737.927612,688.219238 734.067078,690.491394 
	C695.008972,713.479492 653.857788,731.789673 610.313538,744.466431 
	C578.311340,753.783081 545.817017,760.620728 512.510986,763.568054 
	C481.690643,766.295410 450.936249,766.432800 420.303802,762.242859 
	C371.494904,755.566650 325.631653,740.650513 285.028442,711.805481 
	C284.083649,711.134338 283.177704,710.402405 282.306458,709.638611 
	C282.101685,709.459167 282.111664,709.034729 282.014313,708.692932 
	C283.124390,707.378723 284.161621,708.465271 285.062775,708.908447 
	C312.041199,722.176270 340.632050,730.061462 370.234100,734.686829 
	C408.770813,740.708130 447.082550,739.429382 485.362305,732.171875 
	C558.549805,718.296265 623.719543,687.440186 681.410706,640.511353 
	C683.070312,639.161316 684.954956,638.003235 686.027588,635.902405 
	C685.567810,633.499939 683.492065,632.583374 681.698669,631.488037 
	C675.162964,627.496033 668.593689,623.558777 662.020325,619.628906 
	C658.778809,617.691040 656.493042,615.034363 657.190430,611.115540 
	C657.866394,607.317444 660.846802,606.016235 664.477112,605.445923 
	C688.947937,601.601807 713.418823,597.750977 737.851501,593.673279 
	C753.424988,591.074219 768.932007,588.077759 784.471130,585.271729 
	C786.271790,584.946533 788.078674,584.627991 789.896057,584.428345 
	C797.732117,583.567566 802.198059,588.089722 800.615906,595.763489 
	C795.738098,619.421631 788.673767,642.499146 781.721680,665.603088 
	C778.749512,675.480408 775.852478,685.380310 772.777832,695.643005 
z"></path>
<path fill="#000000" opacity="1.000000" stroke="none" d="
M357.629791,408.200928 
	C355.723358,393.257660 357.555420,378.845764 358.481995,364.419067 
	C359.029175,355.899567 358.642609,347.396149 356.924347,339.078369 
	C353.833466,324.115753 342.702545,316.402313 329.882172,310.527313 
	C320.960510,306.438873 311.328918,305.380035 301.699890,304.557648 
	C298.240601,304.262177 296.088745,305.565308 296.261047,309.734924 
	C296.529114,316.221863 296.401398,322.729431 296.302734,329.226166 
	C296.150452,339.251160 288.705841,347.160736 278.656525,347.237244 
	C252.332291,347.437744 226.004852,347.425201 199.680237,347.257904 
	C190.212128,347.197754 183.874634,341.137787 182.538513,331.711609 
	C182.282242,329.903717 182.093323,328.068359 182.090103,326.245300 
	C182.049454,303.085602 182.015366,279.925720 182.049973,256.766052 
	C182.070175,243.239685 187.723999,237.683014 201.248657,237.685394 
	C225.408493,237.689651 249.568329,237.676041 273.728149,237.698929 
	C288.472870,237.712891 296.305084,245.514954 296.331085,260.136719 
	C296.344391,267.634521 296.540894,275.138000 296.306458,282.627991 
	C296.170715,286.965363 297.327087,288.631561 302.116425,288.885315 
	C318.418732,289.749115 334.035645,293.385864 348.090607,302.276520 
	C365.008362,312.978058 373.838318,328.116608 374.351196,348.261475 
	C374.839233,367.430206 372.346588,386.519318 373.258423,405.697144 
	C373.920135,419.613861 379.479919,430.811096 391.016754,438.623840 
	C394.400024,440.914978 395.782959,443.377533 395.356720,447.225952 
	C395.210876,448.542633 395.336609,449.889282 395.335968,451.222229 
	C395.331390,460.904053 395.331024,460.942505 385.319977,460.893188 
	C366.182007,460.798920 347.040588,460.387695 327.907898,460.646423 
	C318.288696,460.776489 308.596741,461.296295 299.158539,463.633484 
	C275.524475,469.485992 261.863525,485.002045 256.340027,508.200867 
	C252.691956,523.522827 252.214355,539.169617 252.434464,554.819580 
	C252.499527,559.444153 251.349533,561.357544 246.352768,561.225952 
	C235.377380,560.936829 236.819824,561.819641 236.666946,551.496887 
	C236.404938,533.804077 237.026108,516.180359 242.105087,499.076813 
	C251.103760,468.773529 271.946991,451.987030 302.649231,446.700653 
	C321.664368,443.426575 340.861145,445.030945 359.983154,444.646729 
	C363.778046,444.570465 367.575775,444.635742 372.553375,444.635742 
	C363.716003,433.541962 357.956512,422.152679 357.629791,408.200928 
z"></path>
<path fill="#000000" opacity="1.000000" stroke="none" d="
M413.804016,685.346924 
	C399.125031,679.540894 387.182953,670.257324 375.579468,660.413330 
	C353.951111,642.064697 328.592377,634.797485 300.607086,635.303772 
	C297.285889,635.363831 296.233032,636.671753 296.301788,639.800964 
	C296.437134,645.963684 296.353760,652.131226 296.354889,658.296814 
	C296.356873,669.321045 289.640808,677.063049 278.713623,677.190918 
	C252.388733,677.498962 226.055557,677.480042 199.730301,677.184814 
	C189.623444,677.071472 182.449783,669.335693 182.374939,659.463501 
	C182.190628,635.143494 182.087067,610.822632 182.049591,586.501953 
	C182.034958,577.009338 185.553436,571.349609 192.747833,568.490112 
	C194.803787,567.673035 196.912369,567.354858 199.092087,567.361450 
	C224.251099,567.437195 249.410080,567.529297 274.569122,567.593018 
	C288.015900,567.627075 296.331726,575.922974 296.352051,589.406860 
	C296.363586,597.072205 296.331329,604.737549 296.343384,612.402893 
	C296.354736,619.615906 296.373352,619.786682 303.468231,619.604675 
	C324.023712,619.077393 343.411804,623.491089 361.855469,632.563110 
	C374.248627,638.658875 384.930817,647.160828 395.461487,655.849121 
	C415.075012,672.030945 437.776306,679.424561 462.870880,679.454346 
	C474.170349,679.467773 485.429993,677.943604 496.118927,673.610229 
	C515.937927,665.575256 526.492432,650.267273 526.664673,628.804932 
	C526.763611,616.474426 526.824158,604.141296 526.667786,591.812317 
	C526.619263,587.985657 527.772034,586.394958 531.787903,586.536133 
	C544.407288,586.979797 543.184082,583.691040 543.166443,597.733337 
	C543.147217,613.045776 543.826904,628.431091 540.986084,643.570740 
	C536.034729,669.958313 518.308533,684.311096 493.828247,691.086792 
	C466.776581,698.574219 440.090912,696.276367 413.804016,685.346924 
z"></path>
<path fill="#000000" opacity="1.000000" stroke="none" d="
M866.397461,495.851379 
	C872.824524,524.569763 867.874939,551.507141 856.306091,577.520996 
	C844.624329,603.788635 826.332886,624.960632 804.535217,643.316467 
	C803.441772,644.237305 802.500305,645.614746 800.042603,645.209534 
	C801.853394,639.021606 803.696899,632.919373 805.421814,626.783813 
	C808.486938,615.880920 811.460754,604.975586 810.939087,593.449890 
	C810.707520,588.335266 810.044128,583.437378 806.530823,579.474792 
	C804.197144,576.842651 805.980957,575.336060 807.703186,573.666321 
	C816.139709,565.487000 823.205017,556.246277 828.811707,545.929504 
	C847.747009,511.086243 845.219971,476.997528 825.173706,443.502411 
	C818.902283,433.023407 811.383667,423.494843 803.599121,414.139709 
	C802.380554,412.675323 800.630371,411.395660 800.719849,409.105713 
	C821.384583,411.668579 857.411438,459.115021 866.397461,495.851379 
z"></path>
</svg>