<svg id="container" width="1647.96875" xmlns="http://www.w3.org/2000/svg" class="flowchart" height="800.375" viewBox="0 0 1647.96875 800.375" role="graphics-document document" aria-roledescription="flowchart-v2"><rect width="100%" height="100%" fill="#FAFAF8"/><style>#container{font-family:"trebuchet ms",verdana,arial,sans-serif;font-size:15px;fill:#1E293B;}@keyframes edge-animation-frame{from{stroke-dashoffset:0;}}@keyframes dash{to{stroke-dashoffset:0;}}#container .edge-animation-slow{stroke-dasharray:9,5!important;stroke-dashoffset:900;animation:dash 50s linear infinite;stroke-linecap:round;}#container .edge-animation-fast{stroke-dasharray:9,5!important;stroke-dashoffset:900;animation:dash 20s linear infinite;stroke-linecap:round;}#container .error-icon{fill:hsl(34.2857142857, 94.5945945946%, 97.7450980392%);}#container .error-text{fill:rgb(0.3108108108, 4.972972973, 11.1891891893);stroke:rgb(0.3108108108, 4.972972973, 11.1891891893);}#container .edge-thickness-normal{stroke-width:1px;}#container .edge-thickness-thick{stroke-width:3.5px;}#container .edge-pattern-solid{stroke-dasharray:0;}#container .edge-thickness-invisible{stroke-width:0;fill:none;}#container .edge-pattern-dashed{stroke-dasharray:3;}#container .edge-pattern-dotted{stroke-dasharray:2;}#container .marker{fill:#475569;stroke:#475569;}#container .marker.cross{stroke:#475569;}#container svg{font-family:"trebuchet ms",verdana,arial,sans-serif;font-size:15px;}#container p{margin:0;}#container .label{font-family:"trebuchet ms",verdana,arial,sans-serif;color:#333;}#container .cluster-label text{fill:rgb(0.3108108108, 4.972972973, 11.1891891893);}#container .cluster-label span{color:rgb(0.3108108108, 4.972972973, 11.1891891893);}#container .cluster-label span p{background-color:transparent;}#container .label text,#container span{fill:#333;color:#333;}#container .node rect,#container .node circle,#container .node ellipse,#container .node polygon,#container .node path{fill:#DBEAFE;stroke:hsl(214.2857142857, 54.5945945946%, 82.7450980392%);stroke-width:1px;}#container .rough-node .label text,#container .node .label text,#container .image-shape .label,#container .icon-shape .label{text-anchor:middle;}#container .node .katex path{fill:#000;stroke:#000;stroke-width:1px;}#container .rough-node .label,#container .node .label,#container .image-shape .label,#container .icon-shape .label{text-align:center;}#container .node.clickable{cursor:pointer;}#container .root .anchor path{fill:#475569!important;stroke-width:0;stroke:#475569;}#container .arrowheadPath{fill:#000000;}#container .edgePath .path{stroke:#475569;stroke-width:2.0px;}#container .flowchart-link{stroke:#475569;fill:none;}#container .edgeLabel{background-color:#FAFAF8;text-align:center;}#container .edgeLabel p{background-color:#FAFAF8;}#container .edgeLabel rect{opacity:0.5;background-color:#FAFAF8;fill:#FAFAF8;}#container .labelBkg{background-color:rgba(250, 250, 248, 0.5);}#container .cluster rect{fill:#F8FAFC;stroke:#CBD5E1;stroke-width:1px;}#container .cluster text{fill:rgb(0.3108108108, 4.972972973, 11.1891891893);}#container .cluster span{color:rgb(0.3108108108, 4.972972973, 11.1891891893);}#container div.mermaidTooltip{position:absolute;text-align:center;max-width:200px;padding:2px;font-family:"trebuchet ms",verdana,arial,sans-serif;font-size:12px;background:hsl(34.2857142857, 94.5945945946%, 97.7450980392%);border:1px solid hsl(34.2857142857, 54.5945945946%, 87.7450980392%);border-radius:2px;pointer-events:none;z-index:100;}#container .flowchartTitleText{text-anchor:middle;font-size:18px;fill:#1E293B;}#container rect.text{fill:none;stroke-width:0;}#container .icon-shape,#container .image-shape{background-color:#FAFAF8;text-align:center;}#container .icon-shape p,#container .image-shape p{background-color:#FAFAF8;padding:2px;}#container .icon-shape rect,#container .image-shape rect{opacity:0.5;background-color:#FAFAF8;fill:#FAFAF8;}#container .label-icon{display:inline-block;height:1em;overflow:visible;vertical-align:-0.125em;}#container .node .label-icon path{fill:currentColor;stroke:revert;stroke-width:revert;}#container :root{--mermaid-font-family:"trebuchet ms",verdana,arial,sans-serif;}#container .blue&gt;*{fill:#DBEAFE!important;stroke:#3B82F6!important;stroke-width:2px!important;color:#1E40AF!important;rx:8!important;ry:8!important;}#container .blue span{fill:#DBEAFE!important;stroke:#3B82F6!important;stroke-width:2px!important;color:#1E40AF!important;rx:8!important;ry:8!important;}#container .blue tspan{fill:#1E40AF!important;}#container .green&gt;*{fill:#D1FAE5!important;stroke:#10B981!important;stroke-width:2px!important;color:#065F46!important;rx:8!important;ry:8!important;}#container .green span{fill:#D1FAE5!important;stroke:#10B981!important;stroke-width:2px!important;color:#065F46!important;rx:8!important;ry:8!important;}#container .green tspan{fill:#065F46!important;}#container .amber&gt;*{fill:#FEF3C7!important;stroke:#F59E0B!important;stroke-width:2px!important;color:#92400E!important;rx:8!important;ry:8!important;}#container .amber span{fill:#FEF3C7!important;stroke:#F59E0B!important;stroke-width:2px!important;color:#92400E!important;rx:8!important;ry:8!important;}#container .amber tspan{fill:#92400E!important;}#container .purple&gt;*{fill:#EDE9FE!important;stroke:#8B5CF6!important;stroke-width:2px!important;color:#5B21B6!important;rx:8!important;ry:8!important;}#container .purple span{fill:#EDE9FE!important;stroke:#8B5CF6!important;stroke-width:2px!important;color:#5B21B6!important;rx:8!important;ry:8!important;}#container .purple tspan{fill:#5B21B6!important;}#container .pink&gt;*{fill:#FCE7F3!important;stroke:#EC4899!important;stroke-width:2px!important;color:#9D174D!important;rx:8!important;ry:8!important;}#container .pink span{fill:#FCE7F3!important;stroke:#EC4899!important;stroke-width:2px!important;color:#9D174D!important;rx:8!important;ry:8!important;}#container .pink tspan{fill:#9D174D!important;}#container .neutral&gt;*{fill:#F1F5F9!important;stroke:#94A3B8!important;stroke-width:2px!important;color:#334155!important;rx:8!important;ry:8!important;}#container .neutral span{fill:#F1F5F9!important;stroke:#94A3B8!important;stroke-width:2px!important;color:#334155!important;rx:8!important;ry:8!important;}#container .neutral tspan{fill:#334155!important;}</style><g><marker id="container_flowchart-v2-pointEnd" class="marker flowchart-v2" viewBox="0 0 10 10" refX="5" refY="5" markerUnits="userSpaceOnUse" markerWidth="8" markerHeight="8" orient="auto"><path d="M 0 0 L 10 5 L 0 10 z" class="arrowMarkerPath" style="stroke-width: 1; stroke-dasharray: 1, 0;"></path></marker><marker id="container_flowchart-v2-pointStart" class="marker flowchart-v2" viewBox="0 0 10 10" refX="4.5" refY="5" markerUnits="userSpaceOnUse" markerWidth="8" markerHeight="8" orient="auto"><path d="M 0 5 L 10 10 L 10 0 z" class="arrowMarkerPath" style="stroke-width: 1; stroke-dasharray: 1, 0;"></path></marker><marker id="container_flowchart-v2-circleEnd" class="marker flowchart-v2" viewBox="0 0 10 10" refX="11" refY="5" markerUnits="userSpaceOnUse" markerWidth="11" markerHeight="11" orient="auto"><circle cx="5" cy="5" r="5" class="arrowMarkerPath" style="stroke-width: 1; stroke-dasharray: 1, 0;"></circle></marker><marker id="container_flowchart-v2-circleStart" class="marker flowchart-v2" viewBox="0 0 10 10" refX="-1" refY="5" markerUnits="userSpaceOnUse" markerWidth="11" markerHeight="11" orient="auto"><circle cx="5" cy="5" r="5" class="arrowMarkerPath" style="stroke-width: 1; stroke-dasharray: 1, 0;"></circle></marker><marker id="container_flowchart-v2-crossEnd" class="marker cross flowchart-v2" viewBox="0 0 11 11" refX="12" refY="5.2" markerUnits="userSpaceOnUse" markerWidth="11" markerHeight="11" orient="auto"><path d="M 1,1 l 9,9 M 10,1 l -9,9" class="arrowMarkerPath" style="stroke-width: 2; stroke-dasharray: 1, 0;"></path></marker><marker id="container_flowchart-v2-crossStart" class="marker cross flowchart-v2" viewBox="0 0 11 11" refX="-1" refY="5.2" markerUnits="userSpaceOnUse" markerWidth="11" markerHeight="11" orient="auto"><path d="M 1,1 l 9,9 M 10,1 l -9,9" class="arrowMarkerPath" style="stroke-width: 2; stroke-dasharray: 1, 0;"></path></marker><g class="root"><g class="clusters"><g class="cluster" id="Phase6" data-look="classic"><rect style="fill:#e0f2f1 !important" x="291.140625" y="8" width="239.875" height="122.5"></rect><g class="cluster-label" transform="translate(317.453125, 8)"><foreignObject width="187.25" height="22.5"><div xmlns="http://www.w3.org/1999/xhtml" style="display: table-cell; white-space: nowrap; line-height: 1.5; max-width: 200px; text-align: center;"><span class="nodeLabel"><p>Phase 6: FileSystemWatcher</p></span></div></foreignObject></g></g><g class="cluster" id="Phase5" data-look="classic"><rect style="fill:#f3e5f5 !important" x="581.015625" y="8" width="242.609375" height="122.5"></rect><g class="cluster-label" transform="translate(632.7578125, 8)"><foreignObject width="139.125" height="22.5"><div xmlns="http://www.w3.org/1999/xhtml" style="display: table-cell; white-space: nowrap; line-height: 1.5; max-width: 200px; text-align: center;"><span class="nodeLabel"><p>Phase 5: Notification</p></span></div></foreignObject></g></g><g class="cluster" id="Phase4" data-look="classic"><rect style="fill:#fce4ec !important" x="8" y="99.875" width="233.140625" height="692.5"></rect><g class="cluster-label" transform="translate(56.859375, 99.875)"><foreignObject width="135.421875" height="22.5"><div xmlns="http://www.w3.org/1999/xhtml" style="display: table-cell; white-space: nowrap; line-height: 1.5; max-width: 200px; text-align: center;"><span class="nodeLabel"><p>Phase 4: Commands</p></span></div></foreignObject></g></g><g class="cluster" id="Phase3" data-look="classic"><rect style="fill:#fff3e0 !important" x="291.140625" y="170.5" width="532.484375" height="489.375"></rect><g class="cluster-label" transform="translate(457.6953125, 170.5)"><foreignObject width="199.375" height="22.5"><div xmlns="http://www.w3.org/1999/xhtml" style="display: table-cell; white-space: nowrap; line-height: 1.5; max-width: 200px; text-align: center;"><span class="nodeLabel"><p>Phase 3: UI &amp; Communication</p></span></div></foreignObject></g></g><g class="cluster" id="Phase2" data-look="classic"><rect style="fill:#e3f2fd !important" x="873.625" y="29.25" width="484.734375" height="701.875"></rect><g class="cluster-label" transform="translate(1041.2265625, 29.25)"><foreignObject width="149.53125" height="22.5"><div xmlns="http://www.w3.org/1999/xhtml" style="display: table-cell; white-space: nowrap; line-height: 1.5; max-width: 200px; text-align: center;"><span class="nodeLabel"><p>Phase 2: Core Services</p></span></div></foreignObject></g></g><g class="cluster" id="Phase1" data-look="classic"><rect style="fill:#e8f5e9 !important" x="1408.359375" y="180.5" width="231.609375" height="611.25"></rect><g class="cluster-label" transform="translate(1448.296875, 180.5)"><foreignObject width="151.734375" height="22.5"><div xmlns="http://www.w3.org/1999/xhtml" style="display: table-cell; white-space: nowrap; line-height: 1.5; max-width: 200px; text-align: center;"><span class="nodeLabel"><p>Phase 1: Infrastructure</p></span></div></foreignObject></g></g></g><g class="edgePaths"><path d="M1298.469,241.75L1308.451,241.75C1318.432,241.75,1338.396,241.75,1352.544,241.75C1366.693,241.75,1375.026,241.75,1383.359,241.75C1391.693,241.75,1400.026,241.75,1409.151,241.75C1418.276,241.75,1428.193,241.75,1433.151,241.75L1438.109,241.75" id="L_FS_FR_0" class="edge-thickness-normal edge-pattern-solid edge-thickness-normal edge-pattern-solid flowchart-link" style=";" data-edge="true" data-et="edge" data-id="L_FS_FR_0" data-points="W3sieCI6MTI5OC40Njg3NSwieSI6MjQxLjc1fSx7IngiOjEzNTguMzU5Mzc1LCJ5IjoyNDEuNzV9LHsieCI6MTM4My4zNTkzNzUsInkiOjI0MS43NX0seyJ4IjoxNDA4LjM1OTM3NSwieSI6MjQxLjc1fSx7IngiOjE0NDIuMTA5Mzc1LCJ5IjoyNDEuNzV9XQ==" marker-end="url(#container_flowchart-v2-pointEnd)"></path><path d="M1307.219,486.125L1315.742,486.125C1324.266,486.125,1341.313,486.125,1354.003,486.125C1366.693,486.125,1375.026,486.125,1383.359,486.125C1391.693,486.125,1400.026,486.125,1416.761,495.011C1433.496,503.897,1458.633,521.669,1471.201,530.555L1483.77,539.441" id="L_HS_HR_0" class="edge-thickness-normal edge-pattern-solid edge-thickness-normal edge-pattern-solid flowchart-link" style=";" data-edge="true" data-et="edge" data-id="L_HS_HR_0" data-points="W3sieCI6MTMwNy4yMTg3NSwieSI6NDg2LjEyNX0seyJ4IjoxMzU4LjM1OTM3NSwieSI6NDg2LjEyNX0seyJ4IjoxMzgzLjM1OTM3NSwieSI6NDg2LjEyNX0seyJ4IjoxNDA4LjM1OTM3NSwieSI6NDg2LjEyNX0seyJ4IjoxNDg3LjAzNTg0MjA4MDE1MjYsInkiOjU0MS43NX1d" marker-end="url(#container_flowchart-v2-pointEnd)"></path><path d="M1073.719,330.289L1077.885,329.178C1082.052,328.068,1090.385,325.846,1108.688,315.82C1126.99,305.795,1155.262,287.964,1169.398,279.049L1183.534,270.134" id="L_ES_FS_0" class="edge-thickness-normal edge-pattern-solid edge-thickness-normal edge-pattern-solid flowchart-link" style=";" data-edge="true" data-et="edge" data-id="L_ES_FS_0" data-points="W3sieCI6MTA3My43MTg3NSwieSI6MzMwLjI4ODg5MDA0NTgxNDI0fSx7IngiOjEwOTguNzE4NzUsInkiOjMyMy42MjV9LHsieCI6MTE4Ni45MTcyODI5MTk4NDc0LCJ5IjoyNjh9XQ==" marker-end="url(#container_flowchart-v2-pointEnd)"></path><path d="M1073.719,345.846L1077.885,345.476C1082.052,345.106,1090.385,344.365,1113.558,379.864C1136.731,415.364,1174.744,487.102,1193.751,522.971L1212.757,558.841" id="L_ES_NER_0" class="edge-thickness-normal edge-pattern-solid edge-thickness-normal edge-pattern-solid flowchart-link" style=";" data-edge="true" data-et="edge" data-id="L_ES_NER_0" data-points="W3sieCI6MTA3My43MTg3NSwieSI6MzQ1Ljg0NjI5NjY4MTkzODF9LHsieCI6MTA5OC43MTg3NSwieSI6MzQzLjYyNX0seyJ4IjoxMjE0LjYyOTc0MzMwMzU3MTMsInkiOjU2Mi4zNzV9XQ==" marker-end="url(#container_flowchart-v2-pointEnd)"></path><path d="M1073.719,361.404L1077.885,361.774C1082.052,362.144,1090.385,362.885,1111.067,378.839C1131.75,394.793,1164.78,425.962,1181.296,441.546L1197.811,457.13" id="L_ES_HS_0" class="edge-thickness-normal edge-pattern-solid edge-thickness-normal edge-pattern-solid flowchart-link" style=";" data-edge="true" data-et="edge" data-id="L_ES_HS_0" data-points="W3sieCI6MTA3My43MTg3NSwieSI6MzYxLjQwMzcwMzMxODA2MTl9LHsieCI6MTA5OC43MTg3NSwieSI6MzYzLjYyNX0seyJ4IjoxMjAwLjcyMDQyNDEwNzE0MywieSI6NDU5Ljg3NX1d" marker-end="url(#container_flowchart-v2-pointEnd)"></path><path d="M1073.719,377.447L1077.885,378.581C1082.052,379.715,1090.385,381.982,1116.189,383.116C1141.992,384.25,1185.266,384.25,1228.539,384.25C1271.813,384.25,1315.086,384.25,1340.889,384.25C1366.693,384.25,1375.026,384.25,1383.359,384.25C1391.693,384.25,1400.026,384.25,1416.712,393.034C1433.398,401.818,1458.437,419.385,1470.956,428.169L1483.476,436.953" id="L_ES_OC_0" class="edge-thickness-normal edge-pattern-solid edge-thickness-normal edge-pattern-solid flowchart-link" style=";" data-edge="true" data-et="edge" data-id="L_ES_OC_0" data-points="W3sieCI6MTA3My43MTg3NSwieSI6Mzc3LjQ0NzI3ODkxMTU2NDY0fSx7IngiOjEwOTguNzE4NzUsInkiOjM4NC4yNX0seyJ4IjoxMjI4LjUzOTA2MjUsInkiOjM4NC4yNX0seyJ4IjoxMzU4LjM1OTM3NSwieSI6Mzg0LjI1fSx7IngiOjEzODMuMzU5Mzc1LCJ5IjozODQuMjV9LHsieCI6MTQwOC4zNTkzNzUsInkiOjM4NC4yNX0seyJ4IjoxNDg2Ljc1MDI0MDM4NDYxNTQsInkiOjQzOS4yNX1d" marker-end="url(#container_flowchart-v2-pointEnd)"></path><path d="M1021.982,521.75L1034.772,512.375C1047.561,503,1073.14,484.25,1104.693,442.535C1136.246,400.82,1173.774,336.14,1192.538,303.8L1211.301,271.46" id="L_DS_FS_0" class="edge-thickness-normal edge-pattern-solid edge-thickness-normal edge-pattern-solid flowchart-link" style=";" data-edge="true" data-et="edge" data-id="L_DS_FS_0" data-points="W3sieCI6MTAyMS45ODIyNDQzMTgxODE5LCJ5Ijo1MjEuNzV9LHsieCI6MTA5OC43MTg3NSwieSI6NDY1LjV9LHsieCI6MTIxMy4zMDg3NDY1MDgzOCwieSI6MjY4fV0=" marker-end="url(#container_flowchart-v2-pointEnd)"></path><path d="M1062.211,548.422L1068.296,548.456C1074.38,548.49,1086.549,548.557,1099.435,550.687C1112.32,552.816,1125.921,557.006,1132.721,559.102L1139.522,561.197" id="L_DS_NER_0" class="edge-thickness-normal edge-pattern-solid edge-thickness-normal edge-pattern-solid flowchart-link" style=";" data-edge="true" data-et="edge" data-id="L_DS_NER_0" data-points="W3sieCI6MTA2Mi4yMTA5Mzc1LCJ5Ijo1NDguNDIyMjYzMjkzMDcyM30seyJ4IjoxMDk4LjcxODc1LCJ5Ijo1NDguNjI1fSx7IngiOjExNDMuMzQ0NDgyNDIxODc1LCJ5Ijo1NjIuMzc1fV0=" marker-end="url(#container_flowchart-v2-pointEnd)"></path><path d="M1062.211,561.935L1068.296,563.05C1074.38,564.165,1086.549,566.395,1106.824,558.493C1127.098,550.59,1155.477,532.555,1169.667,523.538L1183.857,514.52" id="L_DS_HS_0" class="edge-thickness-normal edge-pattern-solid edge-thickness-normal edge-pattern-solid flowchart-link" style=";" data-edge="true" data-et="edge" data-id="L_DS_HS_0" data-points="W3sieCI6MTA2Mi4yMTA5Mzc1LCJ5Ijo1NjEuOTM0Njg4NjcxMzg2OX0seyJ4IjoxMDk4LjcxODc1LCJ5Ijo1NjguNjI1fSx7IngiOjExODcuMjMyNTk5NDMxODE4MiwieSI6NTEyLjM3NX1d" marker-end="url(#container_flowchart-v2-pointEnd)"></path><path d="M790.844,261.75L796.307,261.75C801.771,261.75,812.698,261.75,822.328,261.75C831.958,261.75,840.292,261.75,848.625,261.75C856.958,261.75,865.292,261.75,888.216,261.75C911.141,261.75,948.656,261.75,986.172,261.75C1023.688,261.75,1061.203,261.75,1089.284,260.314C1117.365,258.877,1136.01,256.005,1145.333,254.569L1154.656,253.132" id="L_FTP_FS_0" class="edge-thickness-normal edge-pattern-solid edge-thickness-normal edge-pattern-solid flowchart-link" style=";" data-edge="true" data-et="edge" data-id="L_FTP_FS_0" data-points="W3sieCI6NzkwLjg0Mzc1LCJ5IjoyNjEuNzV9LHsieCI6ODIzLjYyNSwieSI6MjYxLjc1fSx7IngiOjg0OC42MjUsInkiOjI2MS43NX0seyJ4Ijo4NzMuNjI1LCJ5IjoyNjEuNzV9LHsieCI6OTg2LjE3MTg3NSwieSI6MjYxLjc1fSx7IngiOjEwOTguNzE4NzUsInkiOjI2MS43NX0seyJ4IjoxMTU4LjYwOTM3NSwieSI6MjUyLjUyMzMwNDQ0NzI1MjgzfV0=" marker-end="url(#container_flowchart-v2-pointEnd)"></path><path d="M730.625,378.625L746.125,364.25C761.625,349.875,792.625,321.125,812.292,306.75C831.958,292.375,840.292,292.375,848.625,292.375C856.958,292.375,865.292,292.375,888.216,292.375C911.141,292.375,948.656,292.375,986.172,292.375C1023.688,292.375,1061.203,292.375,1089.758,288.555C1118.312,284.734,1137.905,277.094,1147.702,273.274L1157.498,269.453" id="L_MB_FS_0" class="edge-thickness-normal edge-pattern-solid edge-thickness-normal edge-pattern-solid flowchart-link" style=";" data-edge="true" data-et="edge" data-id="L_MB_FS_0" data-points="W3sieCI6NzMwLjYyNDczOTU4MzMzMzMsInkiOjM3OC42MjV9LHsieCI6ODIzLjYyNSwieSI6MjkyLjM3NX0seyJ4Ijo4NDguNjI1LCJ5IjoyOTIuMzc1fSx7IngiOjg3My42MjUsInkiOjI5Mi4zNzV9LHsieCI6OTg2LjE3MTg3NSwieSI6MjkyLjM3NX0seyJ4IjoxMDk4LjcxODc1LCJ5IjoyOTIuMzc1fSx7IngiOjExNjEuMjI0ODI2Mzg4ODg5LCJ5IjoyNjh9XQ==" marker-end="url(#container_flowchart-v2-pointEnd)"></path><path d="M764.452,378.625L774.314,374.458C784.176,370.292,803.901,361.958,817.929,357.792C831.958,353.625,840.292,353.625,848.625,353.625C856.958,353.625,865.292,353.625,872.958,353.625C880.625,353.625,887.625,353.625,891.125,353.625L894.625,353.625" id="L_MB_ES_0" class="edge-thickness-normal edge-pattern-solid edge-thickness-normal edge-pattern-solid flowchart-link" style=";" data-edge="true" data-et="edge" data-id="L_MB_ES_0" data-points="W3sieCI6NzY0LjQ1MTk4MTcwNzMxNywieSI6Mzc4LjYyNX0seyJ4Ijo4MjMuNjI1LCJ5IjozNTMuNjI1fSx7IngiOjg0OC42MjUsInkiOjM1My42MjV9LHsieCI6ODczLjYyNSwieSI6MzUzLjYyNX0seyJ4Ijo4OTguNjI1LCJ5IjozNTMuNjI1fV0=" marker-end="url(#container_flowchart-v2-pointEnd)"></path><path d="M724.568,431.125L741.078,450.604C757.587,470.083,790.606,509.042,811.282,528.521C831.958,548,840.292,548,848.625,548C856.958,548,865.292,548,874.876,548C884.461,548,895.297,548,900.715,548L906.133,548" id="L_MB_DS_0" class="edge-thickness-normal edge-pattern-solid edge-thickness-normal edge-pattern-solid flowchart-link" style=";" data-edge="true" data-et="edge" data-id="L_MB_DS_0" data-points="W3sieCI6NzI0LjU2ODMzMzc4ODIwOTcsInkiOjQzMS4xMjV9LHsieCI6ODIzLjYyNSwieSI6NTQ4fSx7IngiOjg0OC42MjUsInkiOjU0OH0seyJ4Ijo4NzMuNjI1LCJ5Ijo1NDh9LHsieCI6OTEwLjEzMjgxMjUsInkiOjU0OH1d" marker-end="url(#container_flowchart-v2-pointEnd)"></path><path d="M717.901,431.125L735.521,460.813C753.142,490.5,788.384,549.875,810.171,579.563C831.958,609.25,840.292,609.25,848.625,609.25C856.958,609.25,865.292,609.25,888.216,609.25C911.141,609.25,948.656,609.25,986.172,609.25C1023.688,609.25,1061.203,609.25,1083.469,608.693C1105.735,608.135,1112.752,607.021,1116.26,606.463L1119.768,605.906" id="L_MB_NER_0" class="edge-thickness-normal edge-pattern-solid edge-thickness-normal edge-pattern-solid flowchart-link" style=";" data-edge="true" data-et="edge" data-id="L_MB_NER_0" data-points="W3sieCI6NzE3LjkwMDczMTA3Nzk4MTYsInkiOjQzMS4xMjV9LHsieCI6ODIzLjYyNSwieSI6NjA5LjI1fSx7IngiOjg0OC42MjUsInkiOjYwOS4yNX0seyJ4Ijo4NzMuNjI1LCJ5Ijo2MDkuMjV9LHsieCI6OTg2LjE3MTg3NSwieSI6NjA5LjI1fSx7IngiOjEwOTguNzE4NzUsInkiOjYwOS4yNX0seyJ4IjoxMTIzLjcxODc1LCJ5Ijo2MDUuMjc4MTYzOTI4NTA3fV0=" marker-end="url(#container_flowchart-v2-pointEnd)"></path><path d="M506.016,384.875L510.182,384.875C514.349,384.875,522.682,384.875,531.016,384.875C539.349,384.875,547.682,384.875,556.016,384.875C564.349,384.875,572.682,384.875,582.906,385.874C593.13,386.872,605.244,388.87,611.301,389.868L617.358,390.867" id="L_FEM_MB_0" class="edge-thickness-normal edge-pattern-solid edge-thickness-normal edge-pattern-solid flowchart-link" style=";" data-edge="true" data-et="edge" data-id="L_FEM_MB_0" data-points="W3sieCI6NTA2LjAxNTYyNSwieSI6Mzg0Ljg3NX0seyJ4Ijo1MzEuMDE1NjI1LCJ5IjozODQuODc1fSx7IngiOjU1Ni4wMTU2MjUsInkiOjM4NC44NzV9LHsieCI6NTgxLjAxNTYyNSwieSI6Mzg0Ljg3NX0seyJ4Ijo2MjEuMzA0Njg3NSwieSI6MzkxLjUxNzYyMjUyODQ5ODc1fV0=" marker-end="url(#container_flowchart-v2-pointEnd)"></path><path d="M134.265,439.875L152.078,391.646C169.89,343.417,205.516,246.958,227.495,198.729C249.474,150.5,257.807,150.5,266.141,150.5C274.474,150.5,282.807,150.5,306.964,150.5C331.12,150.5,371.099,150.5,411.078,150.5C451.057,150.5,491.036,150.5,515.193,150.5C539.349,150.5,547.682,150.5,556.016,150.5C564.349,150.5,572.682,150.5,597.066,150.5C621.451,150.5,661.885,150.5,702.32,150.5C742.755,150.5,783.19,150.5,807.574,150.5C831.958,150.5,840.292,150.5,848.625,150.5C856.958,150.5,865.292,150.5,888.216,150.5C911.141,150.5,948.656,150.5,986.172,150.5C1023.688,150.5,1061.203,150.5,1094.828,160.95C1128.453,171.4,1158.187,192.3,1173.054,202.75L1187.921,213.2" id="L_CR_FS_0" class="edge-thickness-normal edge-pattern-solid edge-thickness-normal edge-pattern-solid flowchart-link" style=";" data-edge="true" data-et="edge" data-id="L_CR_FS_0" data-points="W3sieCI6MTM0LjI2NTI2OTE4MzE2ODMzLCJ5Ijo0MzkuODc1fSx7IngiOjI0MS4xNDA2MjUsInkiOjE1MC41fSx7IngiOjI2Ni4xNDA2MjUsInkiOjE1MC41fSx7IngiOjI5MS4xNDA2MjUsInkiOjE1MC41fSx7IngiOjQxMS4wNzgxMjUsInkiOjE1MC41fSx7IngiOjUzMS4wMTU2MjUsInkiOjE1MC41fSx7IngiOjU1Ni4wMTU2MjUsInkiOjE1MC41fSx7IngiOjU4MS4wMTU2MjUsInkiOjE1MC41fSx7IngiOjcwMi4zMjAzMTI1LCJ5IjoxNTAuNX0seyJ4Ijo4MjMuNjI1LCJ5IjoxNTAuNX0seyJ4Ijo4NDguNjI1LCJ5IjoxNTAuNX0seyJ4Ijo4NzMuNjI1LCJ5IjoxNTAuNX0seyJ4Ijo5ODYuMTcxODc1LCJ5IjoxNTAuNX0seyJ4IjoxMDk4LjcxODc1LCJ5IjoxNTAuNX0seyJ4IjoxMTkxLjE5MzQ5MzE1MDY4NDgsInkiOjIxNS41fV0=" marker-end="url(#container_flowchart-v2-pointEnd)"></path><path d="M162.231,439.875L175.383,430.708C188.535,421.542,214.838,403.208,232.156,394.042C249.474,384.875,257.807,384.875,266.141,384.875C274.474,384.875,282.807,384.875,290.474,384.875C298.141,384.875,305.141,384.875,308.641,384.875L312.141,384.875" id="L_CR_FEM_0" class="edge-thickness-normal edge-pattern-solid edge-thickness-normal edge-pattern-solid flowchart-link" style=";" data-edge="true" data-et="edge" data-id="L_CR_FEM_0" data-points="W3sieCI6MTYyLjIzMTQ5MDM4NDYxNTM3LCJ5Ijo0MzkuODc1fSx7IngiOjI0MS4xNDA2MjUsInkiOjM4NC44NzV9LHsieCI6MjY2LjE0MDYyNSwieSI6Mzg0Ljg3NX0seyJ4IjoyOTEuMTQwNjI1LCJ5IjozODQuODc1fSx7IngiOjMxNi4xNDA2MjUsInkiOjM4NC44NzV9XQ==" marker-end="url(#container_flowchart-v2-pointEnd)"></path><path d="M141.223,492.375L157.876,518.625C174.529,544.875,207.835,597.375,228.654,623.625C249.474,649.875,257.807,649.875,266.141,660.083C274.474,670.292,282.807,690.708,306.964,700.917C331.12,711.125,371.099,711.125,411.078,711.125C451.057,711.125,491.036,711.125,515.193,711.125C539.349,711.125,547.682,711.125,556.016,711.125C564.349,711.125,572.682,711.125,597.066,711.125C621.451,711.125,661.885,711.125,702.32,711.125C742.755,711.125,783.19,711.125,807.574,711.125C831.958,711.125,840.292,711.125,848.625,711.125C856.958,711.125,865.292,711.125,886.639,656.553C907.986,601.98,942.346,492.835,959.526,438.263L976.707,383.69" id="L_CR_ES_0" class="edge-thickness-normal edge-pattern-solid edge-thickness-normal edge-pattern-solid flowchart-link" style=";" data-edge="true" data-et="edge" data-id="L_CR_ES_0" data-points="W3sieCI6MTQxLjIyMzIxNDI4NTcxNDI4LCJ5Ijo0OTIuMzc1fSx7IngiOjI0MS4xNDA2MjUsInkiOjY0OS44NzV9LHsieCI6MjY2LjE0MDYyNSwieSI6NjQ5Ljg3NX0seyJ4IjoyOTEuMTQwNjI1LCJ5Ijo3MTEuMTI1fSx7IngiOjQxMS4wNzgxMjUsInkiOjcxMS4xMjV9LHsieCI6NTMxLjAxNTYyNSwieSI6NzExLjEyNX0seyJ4Ijo1NTYuMDE1NjI1LCJ5Ijo3MTEuMTI1fSx7IngiOjU4MS4wMTU2MjUsInkiOjcxMS4xMjV9LHsieCI6NzAyLjMyMDMxMjUsInkiOjcxMS4xMjV9LHsieCI6ODIzLjYyNSwieSI6NzExLjEyNX0seyJ4Ijo4NDguNjI1LCJ5Ijo3MTEuMTI1fSx7IngiOjg3My42MjUsInkiOjcxMS4xMjV9LHsieCI6OTc3LjkwNzk0MzYxODg4MTEsInkiOjM3OS44NzV9XQ==" marker-end="url(#container_flowchart-v2-pointEnd)"></path><path d="M139.589,492.375L156.514,521.958C173.439,551.542,207.29,610.708,228.382,640.292C249.474,669.875,257.807,669.875,266.141,664.875C274.474,659.875,282.807,649.875,306.964,644.875C331.12,639.875,371.099,639.875,411.078,639.875C451.057,639.875,491.036,639.875,515.193,639.875C539.349,639.875,547.682,639.875,556.016,639.875C564.349,639.875,572.682,639.875,595.459,581.864C618.236,523.853,655.457,407.831,674.067,349.82L692.677,291.809" id="L_CR_FTP_0" class="edge-thickness-normal edge-pattern-solid edge-thickness-normal edge-pattern-solid flowchart-link" style=";" data-edge="true" data-et="edge" data-id="L_CR_FTP_0" data-points="W3sieCI6MTM5LjU4ODU3MzYxOTYzMTkyLCJ5Ijo0OTIuMzc1fSx7IngiOjI0MS4xNDA2MjUsInkiOjY2OS44NzV9LHsieCI6MjY2LjE0MDYyNSwieSI6NjY5Ljg3NX0seyJ4IjoyOTEuMTQwNjI1LCJ5Ijo2MzkuODc1fSx7IngiOjQxMS4wNzgxMjUsInkiOjYzOS44NzV9LHsieCI6NTMxLjAxNTYyNSwieSI6NjM5Ljg3NX0seyJ4Ijo1NTYuMDE1NjI1LCJ5Ijo2MzkuODc1fSx7IngiOjU4MS4wMTU2MjUsInkiOjYzOS44NzV9LHsieCI6NjkzLjg5OTE2MDY0MDQ5NTksInkiOjI4OH1d" marker-end="url(#container_flowchart-v2-pointEnd)"></path><path d="M135.307,492.375L152.946,535.5C170.585,578.625,205.863,664.875,227.668,708C249.474,751.125,257.807,751.125,266.141,751.125C274.474,751.125,282.807,751.125,306.964,751.125C331.12,751.125,371.099,751.125,411.078,751.125C451.057,751.125,491.036,751.125,515.193,751.125C539.349,751.125,547.682,751.125,556.016,751.125C564.349,751.125,572.682,751.125,597.066,751.125C621.451,751.125,661.885,751.125,702.32,751.125C742.755,751.125,783.19,751.125,807.574,751.125C831.958,751.125,840.292,751.125,848.625,751.125C856.958,751.125,865.292,751.125,888.216,751.125C911.141,751.125,948.656,751.125,986.172,751.125C1023.688,751.125,1061.203,751.125,1101.598,751.125C1141.992,751.125,1185.266,751.125,1228.539,751.125C1271.813,751.125,1315.086,751.125,1340.889,751.125C1366.693,751.125,1375.026,751.125,1383.359,751.125C1391.693,751.125,1400.026,751.125,1421.469,708.514C1442.912,665.902,1477.465,580.68,1494.742,538.068L1512.018,495.457" id="L_CR_OC_0" class="edge-thickness-normal edge-pattern-solid edge-thickness-normal edge-pattern-solid flowchart-link" style=";" data-edge="true" data-et="edge" data-id="L_CR_OC_0" data-points="W3sieCI6MTM1LjMwNzA1MTgwOTIxMDUyLCJ5Ijo0OTIuMzc1fSx7IngiOjI0MS4xNDA2MjUsInkiOjc1MS4xMjV9LHsieCI6MjY2LjE0MDYyNSwieSI6NzUxLjEyNX0seyJ4IjoyOTEuMTQwNjI1LCJ5Ijo3NTEuMTI1fSx7IngiOjQxMS4wNzgxMjUsInkiOjc1MS4xMjV9LHsieCI6NTMxLjAxNTYyNSwieSI6NzUxLjEyNX0seyJ4Ijo1NTYuMDE1NjI1LCJ5Ijo3NTEuMTI1fSx7IngiOjU4MS4wMTU2MjUsInkiOjc1MS4xMjV9LHsieCI6NzAyLjMyMDMxMjUsInkiOjc1MS4xMjV9LHsieCI6ODIzLjYyNSwieSI6NzUxLjEyNX0seyJ4Ijo4NDguNjI1LCJ5Ijo3NTEuMTI1fSx7IngiOjg3My42MjUsInkiOjc1MS4xMjV9LHsieCI6OTg2LjE3MTg3NSwieSI6NzUxLjEyNX0seyJ4IjoxMDk4LjcxODc1LCJ5Ijo3NTEuMTI1fSx7IngiOjEyMjguNTM5MDYyNSwieSI6NzUxLjEyNX0seyJ4IjoxMzU4LjM1OTM3NSwieSI6NzUxLjEyNX0seyJ4IjoxMzgzLjM1OTM3NSwieSI6NzUxLjEyNX0seyJ4IjoxNDA4LjM1OTM3NSwieSI6NzUxLjEyNX0seyJ4IjoxNTEzLjUyMTE4MDkzNTQ0ODcsInkiOjQ5MS43NX1d" marker-end="url(#container_flowchart-v2-pointEnd)"></path><path d="M798.625,69.25L802.792,69.25C806.958,69.25,815.292,69.25,823.625,69.25C831.958,69.25,840.292,69.25,848.625,69.25C856.958,69.25,865.292,69.25,886.239,111.651C907.187,154.052,940.749,238.854,957.53,281.255L974.311,323.656" id="L_NH_ES_0" class="edge-thickness-normal edge-pattern-solid edge-thickness-normal edge-pattern-solid flowchart-link" style=";" data-edge="true" data-et="edge" data-id="L_NH_ES_0" data-points="W3sieCI6Nzk4LjYyNSwieSI6NjkuMjV9LHsieCI6ODIzLjYyNSwieSI6NjkuMjV9LHsieCI6ODQ4LjYyNSwieSI6NjkuMjV9LHsieCI6ODczLjYyNSwieSI6NjkuMjV9LHsieCI6OTc1Ljc4MjkzMjY5MjMwNzcsInkiOjMyNy4zNzV9XQ==" marker-end="url(#container_flowchart-v2-pointEnd)"></path><path d="M494.633,69.25L500.697,69.25C506.76,69.25,518.888,69.25,529.118,96.333C539.349,123.417,547.682,177.583,556.016,204.667C564.349,231.75,572.682,231.75,581.665,232.941C590.648,234.132,600.281,236.515,605.097,237.706L609.914,238.897" id="L_FSW_FTP_0" class="edge-thickness-normal edge-pattern-solid edge-thickness-normal edge-pattern-solid flowchart-link" style=";" data-edge="true" data-et="edge" data-id="L_FSW_FTP_0" data-points="W3sieCI6NDk0LjYzMjgxMjUsInkiOjY5LjI1fSx7IngiOjUzMS4wMTU2MjUsInkiOjY5LjI1fSx7IngiOjU1Ni4wMTU2MjUsInkiOjIzMS43NX0seyJ4Ijo1ODEuMDE1NjI1LCJ5IjoyMzEuNzV9LHsieCI6NjEzLjc5Njg3NSwieSI6MjM5Ljg1NzE2ODE1ODY5MTN9XQ==" marker-end="url(#container_flowchart-v2-pointEnd)"></path></g><g class="edgeLabels"><g class="edgeLabel"><g class="label" data-id="L_FS_FR_0" transform="translate(0, 0)"><foreignObject width="0" height="0"><div xmlns="http://www.w3.org/1999/xhtml" class="labelBkg" style="display: table-cell; white-space: nowrap; line-height: 1.5; max-width: 200px; text-align: center;"><span class="edgeLabel"></span></div></foreignObject></g></g><g class="edgeLabel"><g class="label" data-id="L_HS_HR_0" transform="translate(0, 0)"><foreignObject width="0" height="0"><div xmlns="http://www.w3.org/1999/xhtml" class="labelBkg" style="display: table-cell; white-space: nowrap; line-height: 1.5; max-width: 200px; text-align: center;"><span class="edgeLabel"></span></div></foreignObject></g></g><g class="edgeLabel"><g class="label" data-id="L_ES_FS_0" transform="translate(0, 0)"><foreignObject width="0" height="0"><div xmlns="http://www.w3.org/1999/xhtml" class="labelBkg" style="display: table-cell; white-space: nowrap; line-height: 1.5; max-width: 200px; text-align: center;"><span class="edgeLabel"></span></div></foreignObject></g></g><g class="edgeLabel"><g class="label" data-id="L_ES_NER_0" transform="translate(0, 0)"><foreignObject width="0" height="0"><div xmlns="http://www.w3.org/1999/xhtml" class="labelBkg" style="display: table-cell; white-space: nowrap; line-height: 1.5; max-width: 200px; text-align: center;"><span class="edgeLabel"></span></div></foreignObject></g></g><g class="edgeLabel"><g class="label" data-id="L_ES_HS_0" transform="translate(0, 0)"><foreignObject width="0" height="0"><div xmlns="http://www.w3.org/1999/xhtml" class="labelBkg" style="display: table-cell; white-space: nowrap; line-height: 1.5; max-width: 200px; text-align: center;"><span class="edgeLabel"></span></div></foreignObject></g></g><g class="edgeLabel"><g class="label" data-id="L_ES_OC_0" transform="translate(0, 0)"><foreignObject width="0" height="0"><div xmlns="http://www.w3.org/1999/xhtml" class="labelBkg" style="display: table-cell; white-space: nowrap; line-height: 1.5; max-width: 200px; text-align: center;"><span class="edgeLabel"></span></div></foreignObject></g></g><g class="edgeLabel"><g class="label" data-id="L_DS_FS_0" transform="translate(0, 0)"><foreignObject width="0" height="0"><div xmlns="http://www.w3.org/1999/xhtml" class="labelBkg" style="display: table-cell; white-space: nowrap; line-height: 1.5; max-width: 200px; text-align: center;"><span class="edgeLabel"></span></div></foreignObject></g></g><g class="edgeLabel"><g class="label" data-id="L_DS_NER_0" transform="translate(0, 0)"><foreignObject width="0" height="0"><div xmlns="http://www.w3.org/1999/xhtml" class="labelBkg" style="display: table-cell; white-space: nowrap; line-height: 1.5; max-width: 200px; text-align: center;"><span class="edgeLabel"></span></div></foreignObject></g></g><g class="edgeLabel"><g class="label" data-id="L_DS_HS_0" transform="translate(0, 0)"><foreignObject width="0" height="0"><div xmlns="http://www.w3.org/1999/xhtml" class="labelBkg" style="display: table-cell; white-space: nowrap; line-height: 1.5; max-width: 200px; text-align: center;"><span class="edgeLabel"></span></div></foreignObject></g></g><g class="edgeLabel"><g class="label" data-id="L_FTP_FS_0" transform="translate(0, 0)"><foreignObject width="0" height="0"><div xmlns="http://www.w3.org/1999/xhtml" class="labelBkg" style="display: table-cell; white-space: nowrap; line-height: 1.5; max-width: 200px; text-align: center;"><span class="edgeLabel"></span></div></foreignObject></g></g><g class="edgeLabel"><g class="label" data-id="L_MB_FS_0" transform="translate(0, 0)"><foreignObject width="0" height="0"><div xmlns="http://www.w3.org/1999/xhtml" class="labelBkg" style="display: table-cell; white-space: nowrap; line-height: 1.5; max-width: 200px; text-align: center;"><span class="edgeLabel"></span></div></foreignObject></g></g><g class="edgeLabel"><g class="label" data-id="L_MB_ES_0" transform="translate(0, 0)"><foreignObject width="0" height="0"><div xmlns="http://www.w3.org/1999/xhtml" class="labelBkg" style="display: table-cell; white-space: nowrap; line-height: 1.5; max-width: 200px; text-align: center;"><span class="edgeLabel"></span></div></foreignObject></g></g><g class="edgeLabel"><g class="label" data-id="L_MB_DS_0" transform="translate(0, 0)"><foreignObject width="0" height="0"><div xmlns="http://www.w3.org/1999/xhtml" class="labelBkg" style="display: table-cell; white-space: nowrap; line-height: 1.5; max-width: 200px; text-align: center;"><span class="edgeLabel"></span></div></foreignObject></g></g><g class="edgeLabel"><g class="label" data-id="L_MB_NER_0" transform="translate(0, 0)"><foreignObject width="0" height="0"><div xmlns="http://www.w3.org/1999/xhtml" class="labelBkg" style="display: table-cell; white-space: nowrap; line-height: 1.5; max-width: 200px; text-align: center;"><span class="edgeLabel"></span></div></foreignObject></g></g><g class="edgeLabel"><g class="label" data-id="L_FEM_MB_0" transform="translate(0, 0)"><foreignObject width="0" height="0"><div xmlns="http://www.w3.org/1999/xhtml" class="labelBkg" style="display: table-cell; white-space: nowrap; line-height: 1.5; max-width: 200px; text-align: center;"><span class="edgeLabel"></span></div></foreignObject></g></g><g class="edgeLabel"><g class="label" data-id="L_CR_FS_0" transform="translate(0, 0)"><foreignObject width="0" height="0"><div xmlns="http://www.w3.org/1999/xhtml" class="labelBkg" style="display: table-cell; white-space: nowrap; line-height: 1.5; max-width: 200px; text-align: center;"><span class="edgeLabel"></span></div></foreignObject></g></g><g class="edgeLabel"><g class="label" data-id="L_CR_FEM_0" transform="translate(0, 0)"><foreignObject width="0" height="0"><div xmlns="http://www.w3.org/1999/xhtml" class="labelBkg" style="display: table-cell; white-space: nowrap; line-height: 1.5; max-width: 200px; text-align: center;"><span class="edgeLabel"></span></div></foreignObject></g></g><g class="edgeLabel"><g class="label" data-id="L_CR_ES_0" transform="translate(0, 0)"><foreignObject width="0" height="0"><div xmlns="http://www.w3.org/1999/xhtml" class="labelBkg" style="display: table-cell; white-space: nowrap; line-height: 1.5; max-width: 200px; text-align: center;"><span class="edgeLabel"></span></div></foreignObject></g></g><g class="edgeLabel"><g class="label" data-id="L_CR_FTP_0" transform="translate(0, 0)"><foreignObject width="0" height="0"><div xmlns="http://www.w3.org/1999/xhtml" class="labelBkg" style="display: table-cell; white-space: nowrap; line-height: 1.5; max-width: 200px; text-align: center;"><span class="edgeLabel"></span></div></foreignObject></g></g><g class="edgeLabel"><g class="label" data-id="L_CR_OC_0" transform="translate(0, 0)"><foreignObject width="0" height="0"><div xmlns="http://www.w3.org/1999/xhtml" class="labelBkg" style="display: table-cell; white-space: nowrap; line-height: 1.5; max-width: 200px; text-align: center;"><span class="edgeLabel"></span></div></foreignObject></g></g><g class="edgeLabel"><g class="label" data-id="L_NH_ES_0" transform="translate(0, 0)"><foreignObject width="0" height="0"><div xmlns="http://www.w3.org/1999/xhtml" class="labelBkg" style="display: table-cell; white-space: nowrap; line-height: 1.5; max-width: 200px; text-align: center;"><span class="edgeLabel"></span></div></foreignObject></g></g><g class="edgeLabel"><g class="label" data-id="L_FSW_FTP_0" transform="translate(0, 0)"><foreignObject width="0" height="0"><div xmlns="http://www.w3.org/1999/xhtml" class="labelBkg" style="display: table-cell; white-space: nowrap; line-height: 1.5; max-width: 200px; text-align: center;"><span class="edgeLabel"></span></div></foreignObject></g></g></g><g class="nodes"><g class="node default" id="flowchart-OC-0" transform="translate(1524.1640625, 465.5)"><rect class="basic label-container" style="" x="-81.46875" y="-26.25" width="162.9375" height="52.5"></rect><g class="label" style="" transform="translate(-51.46875, -11.25)"><rect></rect><foreignObject width="102.9375" height="22.5"><div xmlns="http://www.w3.org/1999/xhtml" style="display: table-cell; white-space: nowrap; line-height: 1.5; max-width: 200px; text-align: center;"><span class="nodeLabel"><p>OutputChannel</p></span></div></foreignObject></g></g><g class="node default" id="flowchart-FR-1" transform="translate(1524.1640625, 241.75)"><rect class="basic label-container" style="" x="-82.0546875" y="-26.25" width="164.109375" height="52.5"></rect><g class="label" style="" transform="translate(-52.0546875, -11.25)"><rect></rect><foreignObject width="104.109375" height="22.5"><div xmlns="http://www.w3.org/1999/xhtml" style="display: table-cell; white-space: nowrap; line-height: 1.5; max-width: 200px; text-align: center;"><span class="nodeLabel"><p>FlowRepository</p></span></div></foreignObject></g></g><g class="node default" id="flowchart-HR-2" transform="translate(1524.1640625, 568)"><rect class="basic label-container" style="" x="-90.8046875" y="-26.25" width="181.609375" height="52.5"></rect><g class="label" style="" transform="translate(-60.8046875, -11.25)"><rect></rect><foreignObject width="121.609375" height="22.5"><div xmlns="http://www.w3.org/1999/xhtml" style="display: table-cell; white-space: nowrap; line-height: 1.5; max-width: 200px; text-align: center;"><span class="nodeLabel"><p>HistoryRepository</p></span></div></foreignObject></g></g><g class="node default" id="flowchart-NER-3" transform="translate(1228.5390625, 588.625)"><rect class="basic label-container" style="" x="-104.8203125" y="-26.25" width="209.640625" height="52.5"></rect><g class="label" style="" transform="translate(-74.8203125, -11.25)"><rect></rect><foreignObject width="149.640625" height="22.5"><div xmlns="http://www.w3.org/1999/xhtml" style="display: table-cell; white-space: nowrap; line-height: 1.5; max-width: 200px; text-align: center;"><span class="nodeLabel"><p>NodeExecutorRegistry</p></span></div></foreignObject></g></g><g class="node default" id="flowchart-FS-4" transform="translate(1228.5390625, 241.75)"><rect class="basic label-container" style="" x="-69.9296875" y="-26.25" width="139.859375" height="52.5"></rect><g class="label" style="" transform="translate(-39.9296875, -11.25)"><rect></rect><foreignObject width="79.859375" height="22.5"><div xmlns="http://www.w3.org/1999/xhtml" style="display: table-cell; white-space: nowrap; line-height: 1.5; max-width: 200px; text-align: center;"><span class="nodeLabel"><p>FlowService</p></span></div></foreignObject></g></g><g class="node default" id="flowchart-HS-5" transform="translate(1228.5390625, 486.125)"><rect class="basic label-container" style="" x="-78.6796875" y="-26.25" width="157.359375" height="52.5"></rect><g class="label" style="" transform="translate(-48.6796875, -11.25)"><rect></rect><foreignObject width="97.359375" height="22.5"><div xmlns="http://www.w3.org/1999/xhtml" style="display: table-cell; white-space: nowrap; line-height: 1.5; max-width: 200px; text-align: center;"><span class="nodeLabel"><p>HistoryService</p></span></div></foreignObject></g></g><g class="node default" id="flowchart-ES-6" transform="translate(986.171875, 353.625)"><rect class="basic label-container" style="" x="-87.546875" y="-26.25" width="175.09375" height="52.5"></rect><g class="label" style="" transform="translate(-57.546875, -11.25)"><rect></rect><foreignObject width="115.09375" height="22.5"><div xmlns="http://www.w3.org/1999/xhtml" style="display: table-cell; white-space: nowrap; line-height: 1.5; max-width: 200px; text-align: center;"><span class="nodeLabel"><p>ExecutionService</p></span></div></foreignObject></g></g><g class="node default" id="flowchart-DS-7" transform="translate(986.171875, 548)"><rect class="basic label-container" style="" x="-76.0390625" y="-26.25" width="152.078125" height="52.5"></rect><g class="label" style="" transform="translate(-46.0390625, -11.25)"><rect></rect><foreignObject width="92.078125" height="22.5"><div xmlns="http://www.w3.org/1999/xhtml" style="display: table-cell; white-space: nowrap; line-height: 1.5; max-width: 200px; text-align: center;"><span class="nodeLabel"><p>DebugService</p></span></div></foreignObject></g></g><g class="node default" id="flowchart-FTP-8" transform="translate(702.3203125, 261.75)"><rect class="basic label-container" style="" x="-88.5234375" y="-26.25" width="177.046875" height="52.5"></rect><g class="label" style="" transform="translate(-58.5234375, -11.25)"><rect></rect><foreignObject width="117.046875" height="22.5"><div xmlns="http://www.w3.org/1999/xhtml" style="display: table-cell; white-space: nowrap; line-height: 1.5; max-width: 200px; text-align: center;"><span class="nodeLabel"><p>FlowTreeProvider</p></span></div></foreignObject></g></g><g class="node default" id="flowchart-MB-9" transform="translate(702.3203125, 404.875)"><rect class="basic label-container" style="" x="-81.015625" y="-26.25" width="162.03125" height="52.5"></rect><g class="label" style="" transform="translate(-51.015625, -11.25)"><rect></rect><foreignObject width="102.03125" height="22.5"><div xmlns="http://www.w3.org/1999/xhtml" style="display: table-cell; white-space: nowrap; line-height: 1.5; max-width: 200px; text-align: center;"><span class="nodeLabel"><p>MessageBroker</p></span></div></foreignObject></g></g><g class="node default" id="flowchart-FEM-10" transform="translate(411.078125, 384.875)"><rect class="basic label-container" style="" x="-94.9375" y="-26.25" width="189.875" height="52.5"></rect><g class="label" style="" transform="translate(-64.9375, -11.25)"><rect></rect><foreignObject width="129.875" height="22.5"><div xmlns="http://www.w3.org/1999/xhtml" style="display: table-cell; white-space: nowrap; line-height: 1.5; max-width: 200px; text-align: center;"><span class="nodeLabel"><p>FlowEditorManager</p></span></div></foreignObject></g></g><g class="node default" id="flowchart-CR-11" transform="translate(124.5703125, 466.125)"><rect class="basic label-container" style="" x="-91.5703125" y="-26.25" width="183.140625" height="52.5"></rect><g class="label" style="" transform="translate(-61.5703125, -11.25)"><rect></rect><foreignObject width="123.140625" height="22.5"><div xmlns="http://www.w3.org/1999/xhtml" style="display: table-cell; white-space: nowrap; line-height: 1.5; max-width: 200px; text-align: center;"><span class="nodeLabel"><p>CommandRegistry</p></span></div></foreignObject></g></g><g class="node default" id="flowchart-NH-12" transform="translate(702.3203125, 69.25)"><rect class="basic label-container" style="" x="-96.3046875" y="-26.25" width="192.609375" height="52.5"></rect><g class="label" style="" transform="translate(-66.3046875, -11.25)"><rect></rect><foreignObject width="132.609375" height="22.5"><div xmlns="http://www.w3.org/1999/xhtml" style="display: table-cell; white-space: nowrap; line-height: 1.5; max-width: 200px; text-align: center;"><span class="nodeLabel"><p>notificationHandler</p></span></div></foreignObject></g></g><g class="node default" id="flowchart-FSW-13" transform="translate(411.078125, 69.25)"><rect class="basic label-container" style="" x="-83.5546875" y="-26.25" width="167.109375" height="52.5"></rect><g class="label" style="" transform="translate(-53.5546875, -11.25)"><rect></rect><foreignObject width="107.109375" height="22.5"><div xmlns="http://www.w3.org/1999/xhtml" style="display: table-cell; white-space: nowrap; line-height: 1.5; max-width: 200px; text-align: center;"><span class="nodeLabel"><p>flowFileWatcher</p></span></div></foreignObject></g></g></g></g></g></svg>