<svg id="container" width="367.546875" xmlns="http://www.w3.org/2000/svg" class="classDiagram" height="753.5" viewBox="0 0 367.546875 753.5" role="graphics-document document" aria-roledescription="class"><rect width="100%" height="100%" fill="#FAFAF8"/><style>#container{font-family:"trebuchet ms",verdana,arial,sans-serif;font-size:15px;fill:#1E293B;}@keyframes edge-animation-frame{from{stroke-dashoffset:0;}}@keyframes dash{to{stroke-dashoffset:0;}}#container .edge-animation-slow{stroke-dasharray:9,5!important;stroke-dashoffset:900;animation:dash 50s linear infinite;stroke-linecap:round;}#container .edge-animation-fast{stroke-dasharray:9,5!important;stroke-dashoffset:900;animation:dash 20s linear infinite;stroke-linecap:round;}#container .error-icon{fill:hsl(34.2857142857, 94.5945945946%, 97.7450980392%);}#container .error-text{fill:rgb(0.3108108108, 4.972972973, 11.1891891893);stroke:rgb(0.3108108108, 4.972972973, 11.1891891893);}#container .edge-thickness-normal{stroke-width:1px;}#container .edge-thickness-thick{stroke-width:3.5px;}#container .edge-pattern-solid{stroke-dasharray:0;}#container .edge-thickness-invisible{stroke-width:0;fill:none;}#container .edge-pattern-dashed{stroke-dasharray:3;}#container .edge-pattern-dotted{stroke-dasharray:2;}#container .marker{fill:#475569;stroke:#475569;}#container .marker.cross{stroke:#475569;}#container svg{font-family:"trebuchet ms",verdana,arial,sans-serif;font-size:15px;}#container p{margin:0;}#container g.classGroup text{fill:hsl(214.2857142857, 54.5945945946%, 82.7450980392%);stroke:none;font-family:"trebuchet ms",verdana,arial,sans-serif;font-size:10px;}#container g.classGroup text .title{font-weight:bolder;}#container .nodeLabel,#container .edgeLabel{color:#1E293B;}#container .edgeLabel .label rect{fill:#DBEAFE;}#container .label text{fill:#1E293B;}#container .labelBkg{background:#DBEAFE;}#container .edgeLabel .label span{background:#DBEAFE;}#container .classTitle{font-weight:bolder;}#container .node rect,#container .node circle,#container .node ellipse,#container .node polygon,#container .node path{fill:#DBEAFE;stroke:hsl(214.2857142857, 54.5945945946%, 82.7450980392%);stroke-width:1px;}#container .divider{stroke:hsl(214.2857142857, 54.5945945946%, 82.7450980392%);stroke-width:1;}#container g.clickable{cursor:pointer;}#container g.classGroup rect{fill:#DBEAFE;stroke:hsl(214.2857142857, 54.5945945946%, 82.7450980392%);}#container g.classGroup line{stroke:hsl(214.2857142857, 54.5945945946%, 82.7450980392%);stroke-width:1;}#container .classLabel .box{stroke:none;stroke-width:0;fill:#DBEAFE;opacity:0.5;}#container .classLabel .label{fill:hsl(214.2857142857, 54.5945945946%, 82.7450980392%);font-size:10px;}#container .relation{stroke:#475569;stroke-width:1;fill:none;}#container .dashed-line{stroke-dasharray:3;}#container .dotted-line{stroke-dasharray:1 2;}#container #compositionStart,#container .composition{fill:#475569!important;stroke:#475569!important;stroke-width:1;}#container #compositionEnd,#container .composition{fill:#475569!important;stroke:#475569!important;stroke-width:1;}#container #dependencyStart,#container .dependency{fill:#475569!important;stroke:#475569!important;stroke-width:1;}#container #dependencyStart,#container .dependency{fill:#475569!important;stroke:#475569!important;stroke-width:1;}#container #extensionStart,#container .extension{fill:transparent!important;stroke:#475569!important;stroke-width:1;}#container #extensionEnd,#container .extension{fill:transparent!important;stroke:#475569!important;stroke-width:1;}#container #aggregationStart,#container .aggregation{fill:transparent!important;stroke:#475569!important;stroke-width:1;}#container #aggregationEnd,#container .aggregation{fill:transparent!important;stroke:#475569!important;stroke-width:1;}#container #lollipopStart,#container .lollipop{fill:#DBEAFE!important;stroke:#475569!important;stroke-width:1;}#container #lollipopEnd,#container .lollipop{fill:#DBEAFE!important;stroke:#475569!important;stroke-width:1;}#container .edgeTerminals{font-size:11px;line-height:initial;}#container .classTitleText{text-anchor:middle;font-size:18px;fill:#1E293B;}#container .label-icon{display:inline-block;height:1em;overflow:visible;vertical-align:-0.125em;}#container .node .label-icon path{fill:currentColor;stroke:revert;stroke-width:revert;}#container :root{--mermaid-font-family:"trebuchet ms",verdana,arial,sans-serif;}</style><g><defs><marker id="container_class-aggregationStart" class="marker aggregation class" refX="18" refY="7" markerWidth="190" markerHeight="240" orient="auto"><path d="M 18,7 L9,13 L1,7 L9,1 Z"></path></marker></defs><defs><marker id="container_class-aggregationEnd" class="marker aggregation class" refX="1" refY="7" markerWidth="20" markerHeight="28" orient="auto"><path d="M 18,7 L9,13 L1,7 L9,1 Z"></path></marker></defs><defs><marker id="container_class-extensionStart" class="marker extension class" refX="18" refY="7" markerWidth="190" markerHeight="240" orient="auto"><path d="M 1,7 L18,13 V 1 Z"></path></marker></defs><defs><marker id="container_class-extensionEnd" class="marker extension class" refX="1" refY="7" markerWidth="20" markerHeight="28" orient="auto"><path d="M 1,1 V 13 L18,7 Z"></path></marker></defs><defs><marker id="container_class-compositionStart" class="marker composition class" refX="18" refY="7" markerWidth="190" markerHeight="240" orient="auto"><path d="M 18,7 L9,13 L1,7 L9,1 Z"></path></marker></defs><defs><marker id="container_class-compositionEnd" class="marker composition class" refX="1" refY="7" markerWidth="20" markerHeight="28" orient="auto"><path d="M 18,7 L9,13 L1,7 L9,1 Z"></path></marker></defs><defs><marker id="container_class-dependencyStart" class="marker dependency class" refX="6" refY="7" markerWidth="190" markerHeight="240" orient="auto"><path d="M 5,7 L9,13 L1,7 L9,1 Z"></path></marker></defs><defs><marker id="container_class-dependencyEnd" class="marker dependency class" refX="13" refY="7" markerWidth="20" markerHeight="28" orient="auto"><path d="M 18,7 L9,13 L14,7 L9,1 Z"></path></marker></defs><defs><marker id="container_class-lollipopStart" class="marker lollipop class" refX="13" refY="7" markerWidth="190" markerHeight="240" orient="auto"><circle stroke="black" fill="transparent" cx="7" cy="7" r="6"></circle></marker></defs><defs><marker id="container_class-lollipopEnd" class="marker lollipop class" refX="1" refY="7" markerWidth="190" markerHeight="240" orient="auto"><circle stroke="black" fill="transparent" cx="7" cy="7" r="6"></circle></marker></defs><g class="root"><g class="clusters"></g><g class="edgePaths"><path d="M183.773,238.25L183.773,239.542C183.773,240.833,183.773,243.417,183.773,248.875C183.773,254.333,183.773,262.667,183.773,266.833L183.773,271" id="id_IFlowEditorManager_FlowEditorManager_1" class="edge-thickness-normal edge-pattern-dashed relation" style=";;;" data-edge="true" data-et="edge" data-id="id_IFlowEditorManager_FlowEditorManager_1" data-points="W3sieCI6MTgzLjc3MzQzNzUsInkiOjIyMX0seyJ4IjoxODMuNzczNDM3NSwieSI6MjQ2fSx7IngiOjE4My43NzM0Mzc1LCJ5IjoyNzF9XQ==" marker-start="url(#container_class-extensionStart)"></path><path d="M112.255,568L109.345,574.042C106.436,580.083,100.616,592.167,97.707,603.25C94.797,614.333,94.797,624.417,94.797,629.458L94.797,634.5" id="id_FlowEditorManager_IMessageBroker_2" class="edge-thickness-normal edge-pattern-solid relation" style=";;;" data-edge="true" data-et="edge" data-id="id_FlowEditorManager_IMessageBroker_2" data-points="W3sieCI6MTEyLjI1NTA2Mzg1MzE3OTk4LCJ5Ijo1Njh9LHsieCI6OTQuNzk2ODc1LCJ5Ijo2MDQuMjV9LHsieCI6OTQuNzk2ODc1LCJ5Ijo2NDAuNX1d" marker-end="url(#container_class-dependencyEnd)"></path><path d="M255.292,568L258.202,574.042C261.111,580.083,266.931,592.167,269.84,603.25C272.75,614.333,272.75,624.417,272.75,629.458L272.75,634.5" id="id_FlowEditorManager_WebviewPanel_3" class="edge-thickness-normal edge-pattern-solid relation" style=";;;" data-edge="true" data-et="edge" data-id="id_FlowEditorManager_WebviewPanel_3" data-points="W3sieCI6MjU1LjI5MTgxMTE0NjgyLCJ5Ijo1Njh9LHsieCI6MjcyLjc1LCJ5Ijo2MDQuMjV9LHsieCI6MjcyLjc1LCJ5Ijo2NDAuNX1d" marker-end="url(#container_class-dependencyEnd)"></path></g><g class="edgeLabels"><g class="edgeLabel"><g class="label" data-id="id_IFlowEditorManager_FlowEditorManager_1" transform="translate(0, 0)"><foreignObject width="0" height="0"><div xmlns="http://www.w3.org/1999/xhtml" class="labelBkg" style="display: table-cell; white-space: nowrap; line-height: 1.5; max-width: 200px; text-align: center;"><span class="edgeLabel"></span></div></foreignObject></g></g><g class="edgeLabel" transform="translate(94.796875, 604.25)"><g class="label" data-id="id_FlowEditorManager_IMessageBroker_2" transform="translate(-25.65625, -11.25)"><foreignObject width="51.3125" height="22.5"><div xmlns="http://www.w3.org/1999/xhtml" class="labelBkg" style="display: table-cell; white-space: nowrap; line-height: 1.5; max-width: 200px; text-align: center;"><span class="edgeLabel"><p>brokers</p></span></div></foreignObject></g></g><g class="edgeLabel" transform="translate(272.75, 604.25)"><g class="label" data-id="id_FlowEditorManager_WebviewPanel_3" transform="translate(-22.6484375, -11.25)"><foreignObject width="45.296875" height="22.5"><div xmlns="http://www.w3.org/1999/xhtml" class="labelBkg" style="display: table-cell; white-space: nowrap; line-height: 1.5; max-width: 200px; text-align: center;"><span class="edgeLabel"><p>panels</p></span></div></foreignObject></g></g></g><g class="nodes"><g class="node default" id="classId-IFlowEditorManager-0" transform="translate(183.7734375, 114.5)"><g class="basic label-container"><path d="M-157.23046875 -106.5 L157.23046875 -106.5 L157.23046875 106.5 L-157.23046875 106.5" stroke="none" stroke-width="0" fill="#DBEAFE" style=""></path><path d="M-157.23046875 -106.5 C-58.77705243125979 -106.5, 39.67636388748042 -106.5, 157.23046875 -106.5 M-157.23046875 -106.5 C-37.498833178287384 -106.5, 82.23280239342523 -106.5, 157.23046875 -106.5 M157.23046875 -106.5 C157.23046875 -50.99584673996443, 157.23046875 4.5083065200711445, 157.23046875 106.5 M157.23046875 -106.5 C157.23046875 -40.989807032706736, 157.23046875 24.52038593458653, 157.23046875 106.5 M157.23046875 106.5 C40.719449183157764 106.5, -75.79157038368447 106.5, -157.23046875 106.5 M157.23046875 106.5 C47.45477456878973 106.5, -62.32091961242054 106.5, -157.23046875 106.5 M-157.23046875 106.5 C-157.23046875 57.25924979340142, -157.23046875 8.018499586802847, -157.23046875 -106.5 M-157.23046875 106.5 C-157.23046875 58.79058892354455, -157.23046875 11.081177847089094, -157.23046875 -106.5" stroke="hsl(214.2857142857, 54.5945945946%, 82.7450980392%)" stroke-width="1.3" fill="none" stroke-dasharray="0 0" style=""></path></g><g class="annotation-group text" transform="translate(-38.4453125, -82.5)"><g class="label" style="" transform="translate(0,-11.25)"><foreignObject width="76.890625" height="22.5"><div xmlns="http://www.w3.org/1999/xhtml" style="display: table-cell; white-space: nowrap; line-height: 1.5; max-width: 132px; text-align: center;"><span class="nodeLabel markdown-node-label" style=""><p>«interface»</p></span></div></foreignObject></g></g><g class="label-group text" transform="translate(-68.0078125, -60)"><g class="label" style="font-weight: bolder" transform="translate(0,-11.25)"><foreignObject width="136.015625" height="22.5"><div xmlns="http://www.w3.org/1999/xhtml" style="display: table-cell; white-space: nowrap; line-height: 1.5; max-width: 194px; text-align: center;"><span class="nodeLabel markdown-node-label" style=""><p>IFlowEditorManager</p></span></div></foreignObject></g></g><g class="members-group text" transform="translate(-145.23046875, -13.5)"></g><g class="methods-group text" transform="translate(-145.23046875, 16.5)"><g class="label" style="" transform="translate(0,-11.25)"><foreignObject width="221.671875" height="22.5"><div xmlns="http://www.w3.org/1999/xhtml" style="display: table-cell; white-space: nowrap; line-height: 1.5; max-width: 294px; text-align: center;"><span class="nodeLabel markdown-node-label" style=""><p>+openEditor(flowId: string) : void</p></span></div></foreignObject></g><g class="label" style="" transform="translate(0,11.25)"><foreignObject width="222.453125" height="22.5"><div xmlns="http://www.w3.org/1999/xhtml" style="display: table-cell; white-space: nowrap; line-height: 1.5; max-width: 295px; text-align: center;"><span class="nodeLabel markdown-node-label" style=""><p>+closeEditor(flowId: string) : void</p></span></div></foreignObject></g><g class="label" style="" transform="translate(0,33.75)"><foreignObject width="180.875" height="22.5"><div xmlns="http://www.w3.org/1999/xhtml" style="display: table-cell; white-space: nowrap; line-height: 1.5; max-width: 250px; text-align: center;"><span class="nodeLabel markdown-node-label" style=""><p>+getActiveFlowId() : string?</p></span></div></foreignObject></g><g class="label" style="" transform="translate(0,56.25)"><foreignObject width="111.09375" height="22.5"><div xmlns="http://www.w3.org/1999/xhtml" style="display: table-cell; white-space: nowrap; line-height: 1.5; max-width: 176px; text-align: center;"><span class="nodeLabel markdown-node-label" style=""><p>+dispose() : void</p></span></div></foreignObject></g></g><g class="divider" style=""><path d="M-157.23046875 -37.5 C-43.06367517048837 -37.5, 71.10311840902327 -37.5, 157.23046875 -37.5 M-157.23046875 -37.5 C-36.693859015482175 -37.5, 83.84275071903565 -37.5, 157.23046875 -37.5" stroke="hsl(214.2857142857, 54.5945945946%, 82.7450980392%)" stroke-width="1.3" fill="none" stroke-dasharray="0 0" style=""></path></g><g class="divider" style=""><path d="M-157.23046875 -13.5 C-92.18745727112788 -13.5, -27.144445792255766 -13.5, 157.23046875 -13.5 M-157.23046875 -13.5 C-59.92198455060229 -13.5, 37.38649964879542 -13.5, 157.23046875 -13.5" stroke="hsl(214.2857142857, 54.5945945946%, 82.7450980392%)" stroke-width="1.3" fill="none" stroke-dasharray="0 0" style=""></path></g></g><g class="node default" id="classId-FlowEditorManager-1" transform="translate(183.7734375, 419.5)"><g class="basic label-container"><path d="M-175.7734375 -148.5 L175.7734375 -148.5 L175.7734375 148.5 L-175.7734375 148.5" stroke="none" stroke-width="0" fill="#DBEAFE" style=""></path><path d="M-175.7734375 -148.5 C-66.84331348785527 -148.5, 42.08681052428946 -148.5, 175.7734375 -148.5 M-175.7734375 -148.5 C-92.37241728680185 -148.5, -8.971397073603697 -148.5, 175.7734375 -148.5 M175.7734375 -148.5 C175.7734375 -74.92179308285561, 175.7734375 -1.3435861657112298, 175.7734375 148.5 M175.7734375 -148.5 C175.7734375 -54.315348434248136, 175.7734375 39.86930313150373, 175.7734375 148.5 M175.7734375 148.5 C42.58445230395506 148.5, -90.60453289208988 148.5, -175.7734375 148.5 M175.7734375 148.5 C62.4001803358786 148.5, -50.973076828242796 148.5, -175.7734375 148.5 M-175.7734375 148.5 C-175.7734375 81.01471576780715, -175.7734375 13.529431535614293, -175.7734375 -148.5 M-175.7734375 148.5 C-175.7734375 52.77388203263273, -175.7734375 -42.952235934734546, -175.7734375 -148.5" stroke="hsl(214.2857142857, 54.5945945946%, 82.7450980392%)" stroke-width="1.3" fill="none" stroke-dasharray="0 0" style=""></path></g><g class="annotation-group text" transform="translate(0, -124.5)"></g><g class="label-group text" transform="translate(-65.8125, -124.5)"><g class="label" style="font-weight: bolder" transform="translate(0,-11.25)"><foreignObject width="131.625" height="22.5"><div xmlns="http://www.w3.org/1999/xhtml" style="display: table-cell; white-space: nowrap; line-height: 1.5; max-width: 189px; text-align: center;"><span class="nodeLabel markdown-node-label" style=""><p>FlowEditorManager</p></span></div></foreignObject></g></g><g class="members-group text" transform="translate(-163.7734375, -78)"><g class="label" style="" transform="translate(0,-11.25)"><foreignObject width="123.265625" height="22.5"><div xmlns="http://www.w3.org/1999/xhtml" style="display: table-cell; white-space: nowrap; line-height: 1.5; max-width: 189px; text-align: center;"><span class="nodeLabel markdown-node-label" style=""><p>-extensionUri: URI</p></span></div></foreignObject></g><g class="label" style="" transform="translate(0,11.25)"><foreignObject width="222.734375" height="22.5"><div xmlns="http://www.w3.org/1999/xhtml" style="display: table-cell; white-space: nowrap; line-height: 1.5; max-width: 295px; text-align: center;"><span class="nodeLabel markdown-node-label" style=""><p>-messageBrokerFactory: function</p></span></div></foreignObject></g><g class="label" style="" transform="translate(0,33.75)"><foreignObject width="246.46875" height="22.5"><div xmlns="http://www.w3.org/1999/xhtml" style="display: table-cell; white-space: nowrap; line-height: 1.5; max-width: 360px; text-align: center;"><span class="nodeLabel markdown-node-label" style=""><p>-panels: Map&lt;string, WebviewPanel&gt;</p></span></div></foreignObject></g><g class="label" style="" transform="translate(0,56.25)"><foreignObject width="261.734375" height="22.5"><div xmlns="http://www.w3.org/1999/xhtml" style="display: table-cell; white-space: nowrap; line-height: 1.5; max-width: 376px; text-align: center;"><span class="nodeLabel markdown-node-label" style=""><p>-brokers: Map&lt;string, IMessageBroker&gt;</p></span></div></foreignObject></g></g><g class="methods-group text" transform="translate(-163.7734375, 36)"><g class="label" style="" transform="translate(0,-11.25)"><foreignObject width="221.671875" height="22.5"><div xmlns="http://www.w3.org/1999/xhtml" style="display: table-cell; white-space: nowrap; line-height: 1.5; max-width: 294px; text-align: center;"><span class="nodeLabel markdown-node-label" style=""><p>+openEditor(flowId: string) : void</p></span></div></foreignObject></g><g class="label" style="" transform="translate(0,11.25)"><foreignObject width="222.453125" height="22.5"><div xmlns="http://www.w3.org/1999/xhtml" style="display: table-cell; white-space: nowrap; line-height: 1.5; max-width: 295px; text-align: center;"><span class="nodeLabel markdown-node-label" style=""><p>+closeEditor(flowId: string) : void</p></span></div></foreignObject></g><g class="label" style="" transform="translate(0,33.75)"><foreignObject width="180.875" height="22.5"><div xmlns="http://www.w3.org/1999/xhtml" style="display: table-cell; white-space: nowrap; line-height: 1.5; max-width: 250px; text-align: center;"><span class="nodeLabel markdown-node-label" style=""><p>+getActiveFlowId() : string?</p></span></div></foreignObject></g><g class="label" style="" transform="translate(0,56.25)"><foreignObject width="111.09375" height="22.5"><div xmlns="http://www.w3.org/1999/xhtml" style="display: table-cell; white-space: nowrap; line-height: 1.5; max-width: 176px; text-align: center;"><span class="nodeLabel markdown-node-label" style=""><p>+dispose() : void</p></span></div></foreignObject></g><g class="label" style="" transform="translate(0,78.75)"><foreignObject width="258.84375" height="22.5"><div xmlns="http://www.w3.org/1999/xhtml" style="display: table-cell; white-space: nowrap; line-height: 1.5; max-width: 334px; text-align: center;"><span class="nodeLabel markdown-node-label" style=""><p>-getWebviewContent(webview) : string</p></span></div></foreignObject></g></g><g class="divider" style=""><path d="M-175.7734375 -102 C-45.21333733918172 -102, 85.34676282163656 -102, 175.7734375 -102 M-175.7734375 -102 C-89.48408857765125 -102, -3.1947396553024987 -102, 175.7734375 -102" stroke="hsl(214.2857142857, 54.5945945946%, 82.7450980392%)" stroke-width="1.3" fill="none" stroke-dasharray="0 0" style=""></path></g><g class="divider" style=""><path d="M-175.7734375 12 C-67.7459177946429 12, 40.28160191071419 12, 175.7734375 12 M-175.7734375 12 C-84.8999575001031 12, 5.973522499793802 12, 175.7734375 12" stroke="hsl(214.2857142857, 54.5945945946%, 82.7450980392%)" stroke-width="1.3" fill="none" stroke-dasharray="0 0" style=""></path></g></g><g class="node default" id="classId-IMessageBroker-2" transform="translate(94.796875, 693)"><g class="basic label-container"><path d="M-66.4765625 -52.5 L66.4765625 -52.5 L66.4765625 52.5 L-66.4765625 52.5" stroke="none" stroke-width="0" fill="#DBEAFE" style=""></path><path d="M-66.4765625 -52.5 C-25.256695276764802 -52.5, 15.963171946470396 -52.5, 66.4765625 -52.5 M-66.4765625 -52.5 C-33.87407729978515 -52.5, -1.2715920995702987 -52.5, 66.4765625 -52.5 M66.4765625 -52.5 C66.4765625 -19.634473056649995, 66.4765625 13.23105388670001, 66.4765625 52.5 M66.4765625 -52.5 C66.4765625 -25.147181582567807, 66.4765625 2.2056368348643858, 66.4765625 52.5 M66.4765625 52.5 C22.048780967293183 52.5, -22.379000565413634 52.5, -66.4765625 52.5 M66.4765625 52.5 C24.458311678036438 52.5, -17.559939143927124 52.5, -66.4765625 52.5 M-66.4765625 52.5 C-66.4765625 29.341308115711634, -66.4765625 6.1826162314232675, -66.4765625 -52.5 M-66.4765625 52.5 C-66.4765625 30.195482366999745, -66.4765625 7.890964733999489, -66.4765625 -52.5" stroke="hsl(214.2857142857, 54.5945945946%, 82.7450980392%)" stroke-width="1.3" fill="none" stroke-dasharray="0 0" style=""></path></g><g class="annotation-group text" transform="translate(-38.4453125, -28.5)"><g class="label" style="" transform="translate(0,-11.25)"><foreignObject width="76.890625" height="22.5"><div xmlns="http://www.w3.org/1999/xhtml" style="display: table-cell; white-space: nowrap; line-height: 1.5; max-width: 132px; text-align: center;"><span class="nodeLabel markdown-node-label" style=""><p>«interface»</p></span></div></foreignObject></g></g><g class="label-group text" transform="translate(-54.4765625, -6)"><g class="label" style="font-weight: bolder" transform="translate(0,-11.25)"><foreignObject width="108.953125" height="22.5"><div xmlns="http://www.w3.org/1999/xhtml" style="display: table-cell; white-space: nowrap; line-height: 1.5; max-width: 164px; text-align: center;"><span class="nodeLabel markdown-node-label" style=""><p>IMessageBroker</p></span></div></foreignObject></g></g><g class="members-group text" transform="translate(-54.4765625, 40.5)"></g><g class="methods-group text" transform="translate(-54.4765625, 70.5)"></g><g class="divider" style=""><path d="M-66.4765625 16.5 C-26.0596549117055 16.5, 14.357252676588999 16.5, 66.4765625 16.5 M-66.4765625 16.5 C-38.733107154019265 16.5, -10.989651808038523 16.5, 66.4765625 16.5" stroke="hsl(214.2857142857, 54.5945945946%, 82.7450980392%)" stroke-width="1.3" fill="none" stroke-dasharray="0 0" style=""></path></g><g class="divider" style=""><path d="M-66.4765625 34.5 C-15.072083346009883 34.5, 36.332395807980234 34.5, 66.4765625 34.5 M-66.4765625 34.5 C-33.62847726979095 34.5, -0.7803920395818977 34.5, 66.4765625 34.5" stroke="hsl(214.2857142857, 54.5945945946%, 82.7450980392%)" stroke-width="1.3" fill="none" stroke-dasharray="0 0" style=""></path></g></g><g class="node default" id="classId-WebviewPanel-3" transform="translate(272.75, 693)"><g class="basic label-container"><path d="M-61.4765625 -52.5 L61.4765625 -52.5 L61.4765625 52.5 L-61.4765625 52.5" stroke="none" stroke-width="0" fill="#DBEAFE" style=""></path><path d="M-61.4765625 -52.5 C-36.132965956619884 -52.5, -10.789369413239775 -52.5, 61.4765625 -52.5 M-61.4765625 -52.5 C-16.773059484081656 -52.5, 27.930443531836687 -52.5, 61.4765625 -52.5 M61.4765625 -52.5 C61.4765625 -18.374822825185824, 61.4765625 15.750354349628353, 61.4765625 52.5 M61.4765625 -52.5 C61.4765625 -29.05027000758451, 61.4765625 -5.600540015169017, 61.4765625 52.5 M61.4765625 52.5 C15.978118886879273 52.5, -29.520324726241455 52.5, -61.4765625 52.5 M61.4765625 52.5 C35.802481601393744 52.5, 10.128400702787488 52.5, -61.4765625 52.5 M-61.4765625 52.5 C-61.4765625 11.296428561666268, -61.4765625 -29.907142876667464, -61.4765625 -52.5 M-61.4765625 52.5 C-61.4765625 24.30223030982389, -61.4765625 -3.8955393803522185, -61.4765625 -52.5" stroke="hsl(214.2857142857, 54.5945945946%, 82.7450980392%)" stroke-width="1.3" fill="none" stroke-dasharray="0 0" style=""></path></g><g class="annotation-group text" transform="translate(-44.9453125, -28.5)"><g class="label" style="" transform="translate(0,-11.25)"><foreignObject width="89.890625" height="22.5"><div xmlns="http://www.w3.org/1999/xhtml" style="display: table-cell; white-space: nowrap; line-height: 1.5; max-width: 146px; text-align: center;"><span class="nodeLabel markdown-node-label" style=""><p>«vscode API»</p></span></div></foreignObject></g></g><g class="label-group text" transform="translate(-49.4765625, -6)"><g class="label" style="font-weight: bolder" transform="translate(0,-11.25)"><foreignObject width="98.953125" height="22.5"><div xmlns="http://www.w3.org/1999/xhtml" style="display: table-cell; white-space: nowrap; line-height: 1.5; max-width: 154px; text-align: center;"><span class="nodeLabel markdown-node-label" style=""><p>WebviewPanel</p></span></div></foreignObject></g></g><g class="members-group text" transform="translate(-49.4765625, 40.5)"></g><g class="methods-group text" transform="translate(-49.4765625, 70.5)"></g><g class="divider" style=""><path d="M-61.4765625 16.5 C-12.301737363820905 16.5, 36.87308777235819 16.5, 61.4765625 16.5 M-61.4765625 16.5 C-23.74095718286906 16.5, 13.99464813426188 16.5, 61.4765625 16.5" stroke="hsl(214.2857142857, 54.5945945946%, 82.7450980392%)" stroke-width="1.3" fill="none" stroke-dasharray="0 0" style=""></path></g><g class="divider" style=""><path d="M-61.4765625 34.5 C-30.368759402219204 34.5, 0.7390436955615911 34.5, 61.4765625 34.5 M-61.4765625 34.5 C-21.281590002089942 34.5, 18.913382495820116 34.5, 61.4765625 34.5" stroke="hsl(214.2857142857, 54.5945945946%, 82.7450980392%)" stroke-width="1.3" fill="none" stroke-dasharray="0 0" style=""></path></g></g></g></g></g></svg>