<svg id="container" width="672.2109375" xmlns="http://www.w3.org/2000/svg" class="classDiagram" height="680" viewBox="0 0 672.2109375 680" role="graphics-document document" aria-roledescription="class"><rect width="100%" height="100%" fill="#FAFAF8"/><style>#container{font-family:"trebuchet ms",verdana,arial,sans-serif;font-size:15px;fill:#1E293B;}@keyframes edge-animation-frame{from{stroke-dashoffset:0;}}@keyframes dash{to{stroke-dashoffset:0;}}#container .edge-animation-slow{stroke-dasharray:9,5!important;stroke-dashoffset:900;animation:dash 50s linear infinite;stroke-linecap:round;}#container .edge-animation-fast{stroke-dasharray:9,5!important;stroke-dashoffset:900;animation:dash 20s linear infinite;stroke-linecap:round;}#container .error-icon{fill:hsl(34.2857142857, 94.5945945946%, 97.7450980392%);}#container .error-text{fill:rgb(0.3108108108, 4.972972973, 11.1891891893);stroke:rgb(0.3108108108, 4.972972973, 11.1891891893);}#container .edge-thickness-normal{stroke-width:1px;}#container .edge-thickness-thick{stroke-width:3.5px;}#container .edge-pattern-solid{stroke-dasharray:0;}#container .edge-thickness-invisible{stroke-width:0;fill:none;}#container .edge-pattern-dashed{stroke-dasharray:3;}#container .edge-pattern-dotted{stroke-dasharray:2;}#container .marker{fill:#475569;stroke:#475569;}#container .marker.cross{stroke:#475569;}#container svg{font-family:"trebuchet ms",verdana,arial,sans-serif;font-size:15px;}#container p{margin:0;}#container g.classGroup text{fill:hsl(214.2857142857, 54.5945945946%, 82.7450980392%);stroke:none;font-family:"trebuchet ms",verdana,arial,sans-serif;font-size:10px;}#container g.classGroup text .title{font-weight:bolder;}#container .nodeLabel,#container .edgeLabel{color:#1E293B;}#container .edgeLabel .label rect{fill:#DBEAFE;}#container .label text{fill:#1E293B;}#container .labelBkg{background:#DBEAFE;}#container .edgeLabel .label span{background:#DBEAFE;}#container .classTitle{font-weight:bolder;}#container .node rect,#container .node circle,#container .node ellipse,#container .node polygon,#container .node path{fill:#DBEAFE;stroke:hsl(214.2857142857, 54.5945945946%, 82.7450980392%);stroke-width:1px;}#container .divider{stroke:hsl(214.2857142857, 54.5945945946%, 82.7450980392%);stroke-width:1;}#container g.clickable{cursor:pointer;}#container g.classGroup rect{fill:#DBEAFE;stroke:hsl(214.2857142857, 54.5945945946%, 82.7450980392%);}#container g.classGroup line{stroke:hsl(214.2857142857, 54.5945945946%, 82.7450980392%);stroke-width:1;}#container .classLabel .box{stroke:none;stroke-width:0;fill:#DBEAFE;opacity:0.5;}#container .classLabel .label{fill:hsl(214.2857142857, 54.5945945946%, 82.7450980392%);font-size:10px;}#container .relation{stroke:#475569;stroke-width:1;fill:none;}#container .dashed-line{stroke-dasharray:3;}#container .dotted-line{stroke-dasharray:1 2;}#container #compositionStart,#container .composition{fill:#475569!important;stroke:#475569!important;stroke-width:1;}#container #compositionEnd,#container .composition{fill:#475569!important;stroke:#475569!important;stroke-width:1;}#container #dependencyStart,#container .dependency{fill:#475569!important;stroke:#475569!important;stroke-width:1;}#container #dependencyStart,#container .dependency{fill:#475569!important;stroke:#475569!important;stroke-width:1;}#container #extensionStart,#container .extension{fill:transparent!important;stroke:#475569!important;stroke-width:1;}#container #extensionEnd,#container .extension{fill:transparent!important;stroke:#475569!important;stroke-width:1;}#container #aggregationStart,#container .aggregation{fill:transparent!important;stroke:#475569!important;stroke-width:1;}#container #aggregationEnd,#container .aggregation{fill:transparent!important;stroke:#475569!important;stroke-width:1;}#container #lollipopStart,#container .lollipop{fill:#DBEAFE!important;stroke:#475569!important;stroke-width:1;}#container #lollipopEnd,#container .lollipop{fill:#DBEAFE!important;stroke:#475569!important;stroke-width:1;}#container .edgeTerminals{font-size:11px;line-height:initial;}#container .classTitleText{text-anchor:middle;font-size:18px;fill:#1E293B;}#container .label-icon{display:inline-block;height:1em;overflow:visible;vertical-align:-0.125em;}#container .node .label-icon path{fill:currentColor;stroke:revert;stroke-width:revert;}#container :root{--mermaid-font-family:"trebuchet ms",verdana,arial,sans-serif;}</style><g><defs><marker id="container_class-aggregationStart" class="marker aggregation class" refX="18" refY="7" markerWidth="190" markerHeight="240" orient="auto"><path d="M 18,7 L9,13 L1,7 L9,1 Z"></path></marker></defs><defs><marker id="container_class-aggregationEnd" class="marker aggregation class" refX="1" refY="7" markerWidth="20" markerHeight="28" orient="auto"><path d="M 18,7 L9,13 L1,7 L9,1 Z"></path></marker></defs><defs><marker id="container_class-extensionStart" class="marker extension class" refX="18" refY="7" markerWidth="190" markerHeight="240" orient="auto"><path d="M 1,7 L18,13 V 1 Z"></path></marker></defs><defs><marker id="container_class-extensionEnd" class="marker extension class" refX="1" refY="7" markerWidth="20" markerHeight="28" orient="auto"><path d="M 1,1 V 13 L18,7 Z"></path></marker></defs><defs><marker id="container_class-compositionStart" class="marker composition class" refX="18" refY="7" markerWidth="190" markerHeight="240" orient="auto"><path d="M 18,7 L9,13 L1,7 L9,1 Z"></path></marker></defs><defs><marker id="container_class-compositionEnd" class="marker composition class" refX="1" refY="7" markerWidth="20" markerHeight="28" orient="auto"><path d="M 18,7 L9,13 L1,7 L9,1 Z"></path></marker></defs><defs><marker id="container_class-dependencyStart" class="marker dependency class" refX="6" refY="7" markerWidth="190" markerHeight="240" orient="auto"><path d="M 5,7 L9,13 L1,7 L9,1 Z"></path></marker></defs><defs><marker id="container_class-dependencyEnd" class="marker dependency class" refX="13" refY="7" markerWidth="20" markerHeight="28" orient="auto"><path d="M 18,7 L9,13 L14,7 L9,1 Z"></path></marker></defs><defs><marker id="container_class-lollipopStart" class="marker lollipop class" refX="13" refY="7" markerWidth="190" markerHeight="240" orient="auto"><circle stroke="black" fill="transparent" cx="7" cy="7" r="6"></circle></marker></defs><defs><marker id="container_class-lollipopEnd" class="marker lollipop class" refX="1" refY="7" markerWidth="190" markerHeight="240" orient="auto"><circle stroke="black" fill="transparent" cx="7" cy="7" r="6"></circle></marker></defs><g class="root"><g class="clusters"></g><g class="edgePaths"><path d="M210.285,224L210.285,226.667C210.285,229.333,210.285,234.667,210.285,241.5C210.285,248.333,210.285,256.667,210.285,260.833L210.285,265" id="id_IFlowTreeProvider_FlowTreeProvider_1" class="edge-thickness-normal edge-pattern-dashed relation" style=";;;" data-edge="true" data-et="edge" data-id="id_IFlowTreeProvider_FlowTreeProvider_1" data-points="W3sieCI6MjEwLjI4NTE1NjI1LCJ5IjoyMDYuNzV9LHsieCI6MjEwLjI4NTE1NjI1LCJ5IjoyNDB9LHsieCI6MjEwLjI4NTE1NjI1LCJ5IjoyNjV9XQ==" marker-start="url(#container_class-extensionStart)"></path><path d="M210.285,494.5L210.285,500.542C210.285,506.583,210.285,518.667,210.285,529.75C210.285,540.833,210.285,550.917,210.285,555.958L210.285,561" id="id_FlowTreeProvider_IFlowService_2" class="edge-thickness-normal edge-pattern-solid relation" style=";;;" data-edge="true" data-et="edge" data-id="id_FlowTreeProvider_IFlowService_2" data-points="W3sieCI6MjEwLjI4NTE1NjI1LCJ5Ijo0OTQuNX0seyJ4IjoyMTAuMjg1MTU2MjUsInkiOjUzMC43NX0seyJ4IjoyMTAuMjg1MTU2MjUsInkiOjU2N31d" marker-end="url(#container_class-dependencyEnd)"></path></g><g class="edgeLabels"><g class="edgeLabel"><g class="label" data-id="id_IFlowTreeProvider_FlowTreeProvider_1" transform="translate(0, 0)"><foreignObject width="0" height="0"><div xmlns="http://www.w3.org/1999/xhtml" class="labelBkg" style="display: table-cell; white-space: nowrap; line-height: 1.5; max-width: 200px; text-align: center;"><span class="edgeLabel"></span></div></foreignObject></g></g><g class="edgeLabel" transform="translate(210.28515625, 530.75)"><g class="label" data-id="id_FlowTreeProvider_IFlowService_2" transform="translate(-38.5625, -11.25)"><foreignObject width="77.125" height="22.5"><div xmlns="http://www.w3.org/1999/xhtml" class="labelBkg" style="display: table-cell; white-space: nowrap; line-height: 1.5; max-width: 200px; text-align: center;"><span class="edgeLabel"><p>flowService</p></span></div></foreignObject></g></g></g><g class="nodes"><g class="node default" id="classId-IFlowTreeProvider-0" transform="translate(210.28515625, 111.5)"><g class="basic label-container"><path d="M-202.28515625 -95.25 L202.28515625 -95.25 L202.28515625 95.25 L-202.28515625 95.25" stroke="none" stroke-width="0" fill="#DBEAFE" style=""></path><path d="M-202.28515625 -95.25 C-76.95315432753291 -95.25, 48.37884759493417 -95.25, 202.28515625 -95.25 M-202.28515625 -95.25 C-80.64181452483176 -95.25, 41.00152720033648 -95.25, 202.28515625 -95.25 M202.28515625 -95.25 C202.28515625 -53.51232974676366, 202.28515625 -11.774659493527324, 202.28515625 95.25 M202.28515625 -95.25 C202.28515625 -54.35823292738639, 202.28515625 -13.466465854772778, 202.28515625 95.25 M202.28515625 95.25 C60.714936329403116 95.25, -80.85528359119377 95.25, -202.28515625 95.25 M202.28515625 95.25 C119.42953674910261 95.25, 36.57391724820522 95.25, -202.28515625 95.25 M-202.28515625 95.25 C-202.28515625 55.53283348605601, -202.28515625 15.815666972112027, -202.28515625 -95.25 M-202.28515625 95.25 C-202.28515625 23.22930272994911, -202.28515625 -48.79139454010178, -202.28515625 -95.25" stroke="hsl(214.2857142857, 54.5945945946%, 82.7450980392%)" stroke-width="1.3" fill="none" stroke-dasharray="0 0" style=""></path></g><g class="annotation-group text" transform="translate(-38.4453125, -71.25)"><g class="label" style="" transform="translate(0,-11.25)"><foreignObject width="76.890625" height="22.5"><div xmlns="http://www.w3.org/1999/xhtml" style="display: table-cell; white-space: nowrap; line-height: 1.5; max-width: 132px; text-align: center;"><span class="nodeLabel markdown-node-label" style=""><p>«interface»</p></span></div></foreignObject></g></g><g class="label-group text" transform="translate(-61.9140625, -48.75)"><g class="label" style="font-weight: bolder" transform="translate(0,-11.25)"><foreignObject width="123.828125" height="22.5"><div xmlns="http://www.w3.org/1999/xhtml" style="display: table-cell; white-space: nowrap; line-height: 1.5; max-width: 180px; text-align: center;"><span class="nodeLabel markdown-node-label" style=""><p>IFlowTreeProvider</p></span></div></foreignObject></g></g><g class="members-group text" transform="translate(-190.28515625, -2.25)"></g><g class="methods-group text" transform="translate(-190.28515625, 27.75)"><g class="label" style="" transform="translate(0,-11.25)"><foreignObject width="318.65625" height="22.5"><div xmlns="http://www.w3.org/1999/xhtml" style="display: table-cell; white-space: nowrap; line-height: 1.5; max-width: 397px; text-align: center;"><span class="nodeLabel markdown-node-label" style=""><p>+getChildren(parentId?: string) : FlowTreeItem[]</p></span></div></foreignObject></g><g class="label" style="" transform="translate(0,11.25)"><foreignObject width="297.90625" height="22.5"><div xmlns="http://www.w3.org/1999/xhtml" style="display: table-cell; white-space: nowrap; line-height: 1.5; max-width: 375px; text-align: center;"><span class="nodeLabel markdown-node-label" style=""><p>+getTreeItem(item: FlowTreeItem) : TreeItem</p></span></div></foreignObject></g><g class="label" style="" transform="translate(0,33.75)"><foreignObject width="105.890625" height="22.5"><div xmlns="http://www.w3.org/1999/xhtml" style="display: table-cell; white-space: nowrap; line-height: 1.5; max-width: 170px; text-align: center;"><span class="nodeLabel markdown-node-label" style=""><p>+refresh() : void</p></span></div></foreignObject></g></g><g class="divider" style=""><path d="M-202.28515625 -26.25 C-97.19176863312563 -26.25, 7.901618983748733 -26.25, 202.28515625 -26.25 M-202.28515625 -26.25 C-61.171776007980526 -26.25, 79.94160423403895 -26.25, 202.28515625 -26.25" stroke="hsl(214.2857142857, 54.5945945946%, 82.7450980392%)" stroke-width="1.3" fill="none" stroke-dasharray="0 0" style=""></path></g><g class="divider" style=""><path d="M-202.28515625 -2.25 C-56.01210709017164 -2.25, 90.26094206965672 -2.25, 202.28515625 -2.25 M-202.28515625 -2.25 C-57.69393010593453 -2.25, 86.89729603813095 -2.25, 202.28515625 -2.25" stroke="hsl(214.2857142857, 54.5945945946%, 82.7450980392%)" stroke-width="1.3" fill="none" stroke-dasharray="0 0" style=""></path></g></g><g class="node default" id="classId-FlowTreeProvider-1" transform="translate(210.28515625, 379.75)"><g class="basic label-container"><path d="M-201.1875 -114.75 L201.1875 -114.75 L201.1875 114.75 L-201.1875 114.75" stroke="none" stroke-width="0" fill="#DBEAFE" style=""></path><path d="M-201.1875 -114.75 C-53.35822995335522 -114.75, 94.47104009328956 -114.75, 201.1875 -114.75 M-201.1875 -114.75 C-54.97299364551472 -114.75, 91.24151270897056 -114.75, 201.1875 -114.75 M201.1875 -114.75 C201.1875 -51.45027960172407, 201.1875 11.84944079655186, 201.1875 114.75 M201.1875 -114.75 C201.1875 -67.50719891015387, 201.1875 -20.264397820307764, 201.1875 114.75 M201.1875 114.75 C114.64223939254721 114.75, 28.09697878509442 114.75, -201.1875 114.75 M201.1875 114.75 C42.10456212478903 114.75, -116.97837575042195 114.75, -201.1875 114.75 M-201.1875 114.75 C-201.1875 31.901957496291857, -201.1875 -50.946085007416286, -201.1875 -114.75 M-201.1875 114.75 C-201.1875 27.784663483899493, -201.1875 -59.180673032201014, -201.1875 -114.75" stroke="hsl(214.2857142857, 54.5945945946%, 82.7450980392%)" stroke-width="1.3" fill="none" stroke-dasharray="0 0" style=""></path></g><g class="annotation-group text" transform="translate(0, -90.75)"></g><g class="label-group text" transform="translate(-59.71875, -90.75)"><g class="label" style="font-weight: bolder" transform="translate(0,-11.25)"><foreignObject width="119.4375" height="22.5"><div xmlns="http://www.w3.org/1999/xhtml" style="display: table-cell; white-space: nowrap; line-height: 1.5; max-width: 176px; text-align: center;"><span class="nodeLabel markdown-node-label" style=""><p>FlowTreeProvider</p></span></div></foreignObject></g></g><g class="members-group text" transform="translate(-189.1875, -44.25)"><g class="label" style="" transform="translate(0,-11.25)"><foreignObject width="174.78125" height="22.5"><div xmlns="http://www.w3.org/1999/xhtml" style="display: table-cell; white-space: nowrap; line-height: 1.5; max-width: 244px; text-align: center;"><span class="nodeLabel markdown-node-label" style=""><p>-flowService: IFlowService</p></span></div></foreignObject></g><g class="label" style="" transform="translate(0,11.25)"><foreignObject width="198.90625" height="22.5"><div xmlns="http://www.w3.org/1999/xhtml" style="display: table-cell; white-space: nowrap; line-height: 1.5; max-width: 270px; text-align: center;"><span class="nodeLabel markdown-node-label" style=""><p>-changeEmitter: EventEmitter</p></span></div></foreignObject></g><g class="label" style="" transform="translate(0,33.75)"><foreignObject width="202.765625" height="22.5"><div xmlns="http://www.w3.org/1999/xhtml" style="display: table-cell; white-space: nowrap; line-height: 1.5; max-width: 274px; text-align: center;"><span class="nodeLabel markdown-node-label" style=""><p>+onDidChangeTreeData: Event</p></span></div></foreignObject></g></g><g class="methods-group text" transform="translate(-189.1875, 47.25)"><g class="label" style="" transform="translate(0,-11.25)"><foreignObject width="318.65625" height="22.5"><div xmlns="http://www.w3.org/1999/xhtml" style="display: table-cell; white-space: nowrap; line-height: 1.5; max-width: 397px; text-align: center;"><span class="nodeLabel markdown-node-label" style=""><p>+getChildren(parentId?: string) : FlowTreeItem[]</p></span></div></foreignObject></g><g class="label" style="" transform="translate(0,11.25)"><foreignObject width="297.90625" height="22.5"><div xmlns="http://www.w3.org/1999/xhtml" style="display: table-cell; white-space: nowrap; line-height: 1.5; max-width: 375px; text-align: center;"><span class="nodeLabel markdown-node-label" style=""><p>+getTreeItem(item: FlowTreeItem) : TreeItem</p></span></div></foreignObject></g><g class="label" style="" transform="translate(0,33.75)"><foreignObject width="105.890625" height="22.5"><div xmlns="http://www.w3.org/1999/xhtml" style="display: table-cell; white-space: nowrap; line-height: 1.5; max-width: 170px; text-align: center;"><span class="nodeLabel markdown-node-label" style=""><p>+refresh() : void</p></span></div></foreignObject></g></g><g class="divider" style=""><path d="M-201.1875 -68.25 C-61.90681453285791 -68.25, 77.37387093428418 -68.25, 201.1875 -68.25 M-201.1875 -68.25 C-88.05504704517082 -68.25, 25.077405909658353 -68.25, 201.1875 -68.25" stroke="hsl(214.2857142857, 54.5945945946%, 82.7450980392%)" stroke-width="1.3" fill="none" stroke-dasharray="0 0" style=""></path></g><g class="divider" style=""><path d="M-201.1875 23.25 C-46.575974208855115 23.25, 108.03555158228977 23.25, 201.1875 23.25 M-201.1875 23.25 C-76.8632041131107 23.25, 47.461091773778605 23.25, 201.1875 23.25" stroke="hsl(214.2857142857, 54.5945945946%, 82.7450980392%)" stroke-width="1.3" fill="none" stroke-dasharray="0 0" style=""></path></g></g><g class="node default" id="classId-IFlowService-2" transform="translate(210.28515625, 619.5)"><g class="basic label-container"><path d="M-54.9453125 -52.5 L54.9453125 -52.5 L54.9453125 52.5 L-54.9453125 52.5" stroke="none" stroke-width="0" fill="#DBEAFE" style=""></path><path d="M-54.9453125 -52.5 C-28.742574532822765 -52.5, -2.5398365656455297 -52.5, 54.9453125 -52.5 M-54.9453125 -52.5 C-17.69670850385736 -52.5, 19.551895492285283 -52.5, 54.9453125 -52.5 M54.9453125 -52.5 C54.9453125 -12.83724371093588, 54.9453125 26.82551257812824, 54.9453125 52.5 M54.9453125 -52.5 C54.9453125 -31.03578798833061, 54.9453125 -9.571575976661222, 54.9453125 52.5 M54.9453125 52.5 C17.42820670288917 52.5, -20.08889909422166 52.5, -54.9453125 52.5 M54.9453125 52.5 C21.864227898675523 52.5, -11.216856702648954 52.5, -54.9453125 52.5 M-54.9453125 52.5 C-54.9453125 14.486060155239265, -54.9453125 -23.52787968952147, -54.9453125 -52.5 M-54.9453125 52.5 C-54.9453125 13.784817669137873, -54.9453125 -24.930364661724255, -54.9453125 -52.5" stroke="hsl(214.2857142857, 54.5945945946%, 82.7450980392%)" stroke-width="1.3" fill="none" stroke-dasharray="0 0" style=""></path></g><g class="annotation-group text" transform="translate(-38.4453125, -28.5)"><g class="label" style="" transform="translate(0,-11.25)"><foreignObject width="76.890625" height="22.5"><div xmlns="http://www.w3.org/1999/xhtml" style="display: table-cell; white-space: nowrap; line-height: 1.5; max-width: 132px; text-align: center;"><span class="nodeLabel markdown-node-label" style=""><p>«interface»</p></span></div></foreignObject></g></g><g class="label-group text" transform="translate(-42.9453125, -6)"><g class="label" style="font-weight: bolder" transform="translate(0,-11.25)"><foreignObject width="85.890625" height="22.5"><div xmlns="http://www.w3.org/1999/xhtml" style="display: table-cell; white-space: nowrap; line-height: 1.5; max-width: 140px; text-align: center;"><span class="nodeLabel markdown-node-label" style=""><p>IFlowService</p></span></div></foreignObject></g></g><g class="members-group text" transform="translate(-42.9453125, 40.5)"></g><g class="methods-group text" transform="translate(-42.9453125, 70.5)"></g><g class="divider" style=""><path d="M-54.9453125 16.5 C-11.527357798815501 16.5, 31.890596902368998 16.5, 54.9453125 16.5 M-54.9453125 16.5 C-31.77574013511227 16.5, -8.606167770224538 16.5, 54.9453125 16.5" stroke="hsl(214.2857142857, 54.5945945946%, 82.7450980392%)" stroke-width="1.3" fill="none" stroke-dasharray="0 0" style=""></path></g><g class="divider" style=""><path d="M-54.9453125 34.5 C-20.89706305726012 34.5, 13.151186385479761 34.5, 54.9453125 34.5 M-54.9453125 34.5 C-27.43790570042119 34.5, 0.0695010991576197 34.5, 54.9453125 34.5" stroke="hsl(214.2857142857, 54.5945945946%, 82.7450980392%)" stroke-width="1.3" fill="none" stroke-dasharray="0 0" style=""></path></g></g><g class="node default" id="classId-FlowTreeItem-3" transform="translate(563.390625, 111.5)"><g class="basic label-container"><path d="M-100.8203125 -103.5 L100.8203125 -103.5 L100.8203125 103.5 L-100.8203125 103.5" stroke="none" stroke-width="0" fill="#DBEAFE" style=""></path><path d="M-100.8203125 -103.5 C-43.82493012609906 -103.5, 13.170452247801876 -103.5, 100.8203125 -103.5 M-100.8203125 -103.5 C-57.90978324730498 -103.5, -14.999253994609958 -103.5, 100.8203125 -103.5 M100.8203125 -103.5 C100.8203125 -31.409672984811777, 100.8203125 40.680654030376445, 100.8203125 103.5 M100.8203125 -103.5 C100.8203125 -34.67285053281515, 100.8203125 34.154298934369706, 100.8203125 103.5 M100.8203125 103.5 C53.78132675692164 103.5, 6.742341013843287 103.5, -100.8203125 103.5 M100.8203125 103.5 C32.44437305528028 103.5, -35.93156638943944 103.5, -100.8203125 103.5 M-100.8203125 103.5 C-100.8203125 53.551908211087024, -100.8203125 3.6038164221740487, -100.8203125 -103.5 M-100.8203125 103.5 C-100.8203125 57.11003353261555, -100.8203125 10.720067065231106, -100.8203125 -103.5" stroke="hsl(214.2857142857, 54.5945945946%, 82.7450980392%)" stroke-width="1.3" fill="none" stroke-dasharray="0 0" style=""></path></g><g class="annotation-group text" transform="translate(0, -79.5)"></g><g class="label-group text" transform="translate(-46.09375, -79.5)"><g class="label" style="font-weight: bolder" transform="translate(0,-11.25)"><foreignObject width="92.1875" height="22.5"><div xmlns="http://www.w3.org/1999/xhtml" style="display: table-cell; white-space: nowrap; line-height: 1.5; max-width: 147px; text-align: center;"><span class="nodeLabel markdown-node-label" style=""><p>FlowTreeItem</p></span></div></foreignObject></g></g><g class="members-group text" transform="translate(-88.8203125, -33)"><g class="label" style="" transform="translate(0,-11.25)"><foreignObject width="67.296875" height="22.5"><div xmlns="http://www.w3.org/1999/xhtml" style="display: table-cell; white-space: nowrap; line-height: 1.5; max-width: 130px; text-align: center;"><span class="nodeLabel markdown-node-label" style=""><p>+id: string</p></span></div></foreignObject></g><g class="label" style="" transform="translate(0,11.25)"><foreignObject width="88.203125" height="22.5"><div xmlns="http://www.w3.org/1999/xhtml" style="display: table-cell; white-space: nowrap; line-height: 1.5; max-width: 152px; text-align: center;"><span class="nodeLabel markdown-node-label" style=""><p>+label: string</p></span></div></foreignObject></g><g class="label" style="" transform="translate(0,33.75)"><foreignObject width="83.828125" height="22.5"><div xmlns="http://www.w3.org/1999/xhtml" style="display: table-cell; white-space: nowrap; line-height: 1.5; max-width: 147px; text-align: center;"><span class="nodeLabel markdown-node-label" style=""><p>+type: string</p></span></div></foreignObject></g><g class="label" style="" transform="translate(0,56.25)"><foreignObject width="131.546875" height="22.5"><div xmlns="http://www.w3.org/1999/xhtml" style="display: table-cell; white-space: nowrap; line-height: 1.5; max-width: 198px; text-align: center;"><span class="nodeLabel markdown-node-label" style=""><p>+description: string</p></span></div></foreignObject></g><g class="label" style="" transform="translate(0,78.75)"><foreignObject width="119.015625" height="22.5"><div xmlns="http://www.w3.org/1999/xhtml" style="display: table-cell; white-space: nowrap; line-height: 1.5; max-width: 185px; text-align: center;"><span class="nodeLabel markdown-node-label" style=""><p>+parentId?: string</p></span></div></foreignObject></g></g><g class="methods-group text" transform="translate(-88.8203125, 103.5)"></g><g class="divider" style=""><path d="M-100.8203125 -57 C-37.66770974803193 -57, 25.484893003936136 -57, 100.8203125 -57 M-100.8203125 -57 C-22.364271969226976 -57, 56.09176856154605 -57, 100.8203125 -57" stroke="hsl(214.2857142857, 54.5945945946%, 82.7450980392%)" stroke-width="1.3" fill="none" stroke-dasharray="0 0" style=""></path></g><g class="divider" style=""><path d="M-100.8203125 79.5 C-42.98311846339044 79.5, 14.85407557321912 79.5, 100.8203125 79.5 M-100.8203125 79.5 C-50.57937984161115 79.5, -0.33844718322229994 79.5, 100.8203125 79.5" stroke="hsl(214.2857142857, 54.5945945946%, 82.7450980392%)" stroke-width="1.3" fill="none" stroke-dasharray="0 0" style=""></path></g></g></g></g></g></svg>