<svg id="container" width="534.375" xmlns="http://www.w3.org/2000/svg" class="classDiagram" height="1001" viewBox="0 0 534.375 1001" role="graphics-document document" aria-roledescription="class"><rect width="100%" height="100%" fill="#FAFAF8"/><style>#container{font-family:"trebuchet ms",verdana,arial,sans-serif;font-size:15px;fill:#1E293B;}@keyframes edge-animation-frame{from{stroke-dashoffset:0;}}@keyframes dash{to{stroke-dashoffset:0;}}#container .edge-animation-slow{stroke-dasharray:9,5!important;stroke-dashoffset:900;animation:dash 50s linear infinite;stroke-linecap:round;}#container .edge-animation-fast{stroke-dasharray:9,5!important;stroke-dashoffset:900;animation:dash 20s linear infinite;stroke-linecap:round;}#container .error-icon{fill:hsl(34.2857142857, 94.5945945946%, 97.7450980392%);}#container .error-text{fill:rgb(0.3108108108, 4.972972973, 11.1891891893);stroke:rgb(0.3108108108, 4.972972973, 11.1891891893);}#container .edge-thickness-normal{stroke-width:1px;}#container .edge-thickness-thick{stroke-width:3.5px;}#container .edge-pattern-solid{stroke-dasharray:0;}#container .edge-thickness-invisible{stroke-width:0;fill:none;}#container .edge-pattern-dashed{stroke-dasharray:3;}#container .edge-pattern-dotted{stroke-dasharray:2;}#container .marker{fill:#475569;stroke:#475569;}#container .marker.cross{stroke:#475569;}#container svg{font-family:"trebuchet ms",verdana,arial,sans-serif;font-size:15px;}#container p{margin:0;}#container g.classGroup text{fill:hsl(214.2857142857, 54.5945945946%, 82.7450980392%);stroke:none;font-family:"trebuchet ms",verdana,arial,sans-serif;font-size:10px;}#container g.classGroup text .title{font-weight:bolder;}#container .nodeLabel,#container .edgeLabel{color:#1E293B;}#container .edgeLabel .label rect{fill:#DBEAFE;}#container .label text{fill:#1E293B;}#container .labelBkg{background:#DBEAFE;}#container .edgeLabel .label span{background:#DBEAFE;}#container .classTitle{font-weight:bolder;}#container .node rect,#container .node circle,#container .node ellipse,#container .node polygon,#container .node path{fill:#DBEAFE;stroke:hsl(214.2857142857, 54.5945945946%, 82.7450980392%);stroke-width:1px;}#container .divider{stroke:hsl(214.2857142857, 54.5945945946%, 82.7450980392%);stroke-width:1;}#container g.clickable{cursor:pointer;}#container g.classGroup rect{fill:#DBEAFE;stroke:hsl(214.2857142857, 54.5945945946%, 82.7450980392%);}#container g.classGroup line{stroke:hsl(214.2857142857, 54.5945945946%, 82.7450980392%);stroke-width:1;}#container .classLabel .box{stroke:none;stroke-width:0;fill:#DBEAFE;opacity:0.5;}#container .classLabel .label{fill:hsl(214.2857142857, 54.5945945946%, 82.7450980392%);font-size:10px;}#container .relation{stroke:#475569;stroke-width:1;fill:none;}#container .dashed-line{stroke-dasharray:3;}#container .dotted-line{stroke-dasharray:1 2;}#container #compositionStart,#container .composition{fill:#475569!important;stroke:#475569!important;stroke-width:1;}#container #compositionEnd,#container .composition{fill:#475569!important;stroke:#475569!important;stroke-width:1;}#container #dependencyStart,#container .dependency{fill:#475569!important;stroke:#475569!important;stroke-width:1;}#container #dependencyStart,#container .dependency{fill:#475569!important;stroke:#475569!important;stroke-width:1;}#container #extensionStart,#container .extension{fill:transparent!important;stroke:#475569!important;stroke-width:1;}#container #extensionEnd,#container .extension{fill:transparent!important;stroke:#475569!important;stroke-width:1;}#container #aggregationStart,#container .aggregation{fill:transparent!important;stroke:#475569!important;stroke-width:1;}#container #aggregationEnd,#container .aggregation{fill:transparent!important;stroke:#475569!important;stroke-width:1;}#container #lollipopStart,#container .lollipop{fill:#DBEAFE!important;stroke:#475569!important;stroke-width:1;}#container #lollipopEnd,#container .lollipop{fill:#DBEAFE!important;stroke:#475569!important;stroke-width:1;}#container .edgeTerminals{font-size:11px;line-height:initial;}#container .classTitleText{text-anchor:middle;font-size:18px;fill:#1E293B;}#container .label-icon{display:inline-block;height:1em;overflow:visible;vertical-align:-0.125em;}#container .node .label-icon path{fill:currentColor;stroke:revert;stroke-width:revert;}#container :root{--mermaid-font-family:"trebuchet ms",verdana,arial,sans-serif;}</style><g><defs><marker id="container_class-aggregationStart" class="marker aggregation class" refX="18" refY="7" markerWidth="190" markerHeight="240" orient="auto"><path d="M 18,7 L9,13 L1,7 L9,1 Z"></path></marker></defs><defs><marker id="container_class-aggregationEnd" class="marker aggregation class" refX="1" refY="7" markerWidth="20" markerHeight="28" orient="auto"><path d="M 18,7 L9,13 L1,7 L9,1 Z"></path></marker></defs><defs><marker id="container_class-extensionStart" class="marker extension class" refX="18" refY="7" markerWidth="190" markerHeight="240" orient="auto"><path d="M 1,7 L18,13 V 1 Z"></path></marker></defs><defs><marker id="container_class-extensionEnd" class="marker extension class" refX="1" refY="7" markerWidth="20" markerHeight="28" orient="auto"><path d="M 1,1 V 13 L18,7 Z"></path></marker></defs><defs><marker id="container_class-compositionStart" class="marker composition class" refX="18" refY="7" markerWidth="190" markerHeight="240" orient="auto"><path d="M 18,7 L9,13 L1,7 L9,1 Z"></path></marker></defs><defs><marker id="container_class-compositionEnd" class="marker composition class" refX="1" refY="7" markerWidth="20" markerHeight="28" orient="auto"><path d="M 18,7 L9,13 L1,7 L9,1 Z"></path></marker></defs><defs><marker id="container_class-dependencyStart" class="marker dependency class" refX="6" refY="7" markerWidth="190" markerHeight="240" orient="auto"><path d="M 5,7 L9,13 L1,7 L9,1 Z"></path></marker></defs><defs><marker id="container_class-dependencyEnd" class="marker dependency class" refX="13" refY="7" markerWidth="20" markerHeight="28" orient="auto"><path d="M 18,7 L9,13 L14,7 L9,1 Z"></path></marker></defs><defs><marker id="container_class-lollipopStart" class="marker lollipop class" refX="13" refY="7" markerWidth="190" markerHeight="240" orient="auto"><circle stroke="black" fill="transparent" cx="7" cy="7" r="6"></circle></marker></defs><defs><marker id="container_class-lollipopEnd" class="marker lollipop class" refX="1" refY="7" markerWidth="190" markerHeight="240" orient="auto"><circle stroke="black" fill="transparent" cx="7" cy="7" r="6"></circle></marker></defs><g class="root"><g class="clusters"></g><g class="edgePaths"><path d="M258.18,283.25L258.18,284.542C258.18,285.833,258.18,288.417,258.18,293.875C258.18,299.333,258.18,307.667,258.18,311.833L258.18,316" id="id_IDebugService_DebugService_1" class="edge-thickness-normal edge-pattern-dashed relation" style=";;;" data-edge="true" data-et="edge" data-id="id_IDebugService_DebugService_1" data-points="W3sieCI6MjU4LjE3OTY4NzUsInkiOjI2Nn0seyJ4IjoyNTguMTc5Njg3NSwieSI6MjkxfSx7IngiOjI1OC4xNzk2ODc1LCJ5IjozMTZ9XQ==" marker-start="url(#container_class-extensionStart)"></path><path d="M87.691,815.5L83.567,821.542C79.442,827.583,71.194,839.667,67.07,850.75C62.945,861.833,62.945,871.917,62.945,876.958L62.945,882" id="id_DebugService_IFlowService_2" class="edge-thickness-normal edge-pattern-solid relation" style=";;;" data-edge="true" data-et="edge" data-id="id_DebugService_IFlowService_2" data-points="W3sieCI6ODcuNjkwOTI4MjEyNDEyNTksInkiOjgxNS41fSx7IngiOjYyLjk0NTMxMjUsInkiOjg1MS43NX0seyJ4Ijo2Mi45NDUzMTI1LCJ5Ijo4ODh9XQ==" marker-end="url(#container_class-dependencyEnd)"></path><path d="M258.18,815.5L258.18,821.542C258.18,827.583,258.18,839.667,258.18,850.75C258.18,861.833,258.18,871.917,258.18,876.958L258.18,882" id="id_DebugService_INodeExecutorRegistry_3" class="edge-thickness-normal edge-pattern-solid relation" style=";;;" data-edge="true" data-et="edge" data-id="id_DebugService_INodeExecutorRegistry_3" data-points="W3sieCI6MjU4LjE3OTY4NzUsInkiOjgxNS41fSx7IngiOjI1OC4xNzk2ODc1LCJ5Ijo4NTEuNzV9LHsieCI6MjU4LjE3OTY4NzUsInkiOjg4OH1d" marker-end="url(#container_class-dependencyEnd)"></path><path d="M436.535,815.5L440.849,821.542C445.164,827.583,453.793,839.667,458.107,850.75C462.422,861.833,462.422,871.917,462.422,876.958L462.422,882" id="id_DebugService_IHistoryService_4" class="edge-thickness-normal edge-pattern-solid relation" style=";;;" data-edge="true" data-et="edge" data-id="id_DebugService_IHistoryService_4" data-points="W3sieCI6NDM2LjUzNDUzNDgwMTEzNjQsInkiOjgxNS41fSx7IngiOjQ2Mi40MjE4NzUsInkiOjg1MS43NX0seyJ4Ijo0NjIuNDIxODc1LCJ5Ijo4ODh9XQ==" marker-end="url(#container_class-dependencyEnd)"></path></g><g class="edgeLabels"><g class="edgeLabel"><g class="label" data-id="id_IDebugService_DebugService_1" transform="translate(0, 0)"><foreignObject width="0" height="0"><div xmlns="http://www.w3.org/1999/xhtml" class="labelBkg" style="display: table-cell; white-space: nowrap; line-height: 1.5; max-width: 200px; text-align: center;"><span class="edgeLabel"></span></div></foreignObject></g></g><g class="edgeLabel" transform="translate(62.9453125, 851.75)"><g class="label" data-id="id_DebugService_IFlowService_2" transform="translate(-38.5625, -11.25)"><foreignObject width="77.125" height="22.5"><div xmlns="http://www.w3.org/1999/xhtml" class="labelBkg" style="display: table-cell; white-space: nowrap; line-height: 1.5; max-width: 200px; text-align: center;"><span class="edgeLabel"><p>flowService</p></span></div></foreignObject></g></g><g class="edgeLabel" transform="translate(258.1796875, 851.75)"><g class="label" data-id="id_DebugService_INodeExecutorRegistry_3" transform="translate(-56.75, -11.25)"><foreignObject width="113.5" height="22.5"><div xmlns="http://www.w3.org/1999/xhtml" class="labelBkg" style="display: table-cell; white-space: nowrap; line-height: 1.5; max-width: 200px; text-align: center;"><span class="edgeLabel"><p>executorRegistry</p></span></div></foreignObject></g></g><g class="edgeLabel" transform="translate(462.421875, 851.75)"><g class="label" data-id="id_DebugService_IHistoryService_4" transform="translate(-47.9765625, -11.25)"><foreignObject width="95.953125" height="22.5"><div xmlns="http://www.w3.org/1999/xhtml" class="labelBkg" style="display: table-cell; white-space: nowrap; line-height: 1.5; max-width: 200px; text-align: center;"><span class="edgeLabel"><p>historyService</p></span></div></foreignObject></g></g></g><g class="nodes"><g class="node default" id="classId-IDebugService-0" transform="translate(258.1796875, 137)"><g class="basic label-container"><path d="M-184.09375 -129 L184.09375 -129 L184.09375 129 L-184.09375 129" stroke="none" stroke-width="0" fill="#DBEAFE" style=""></path><path d="M-184.09375 -129 C-75.95824851969742 -129, 32.17725296060516 -129, 184.09375 -129 M-184.09375 -129 C-54.82365877107213 -129, 74.44643245785574 -129, 184.09375 -129 M184.09375 -129 C184.09375 -63.679622175935904, 184.09375 1.6407556481281915, 184.09375 129 M184.09375 -129 C184.09375 -76.96091382871082, 184.09375 -24.92182765742163, 184.09375 129 M184.09375 129 C67.0310575970505 129, -50.03163480589899 129, -184.09375 129 M184.09375 129 C109.36045853827576 129, 34.62716707655153 129, -184.09375 129 M-184.09375 129 C-184.09375 37.32364225152358, -184.09375 -54.35271549695284, -184.09375 -129 M-184.09375 129 C-184.09375 54.615542411857646, -184.09375 -19.768915176284708, -184.09375 -129" stroke="hsl(214.2857142857, 54.5945945946%, 82.7450980392%)" stroke-width="1.3" fill="none" stroke-dasharray="0 0" style=""></path></g><g class="annotation-group text" transform="translate(-38.4453125, -105)"><g class="label" style="" transform="translate(0,-11.25)"><foreignObject width="76.890625" height="22.5"><div xmlns="http://www.w3.org/1999/xhtml" style="display: table-cell; white-space: nowrap; line-height: 1.5; max-width: 132px; text-align: center;"><span class="nodeLabel markdown-node-label" style=""><p>«interface»</p></span></div></foreignObject></g></g><g class="label-group text" transform="translate(-49.109375, -82.5)"><g class="label" style="font-weight: bolder" transform="translate(0,-11.25)"><foreignObject width="98.21875" height="22.5"><div xmlns="http://www.w3.org/1999/xhtml" style="display: table-cell; white-space: nowrap; line-height: 1.5; max-width: 153px; text-align: center;"><span class="nodeLabel markdown-node-label" style=""><p>IDebugService</p></span></div></foreignObject></g></g><g class="members-group text" transform="translate(-172.09375, -36)"></g><g class="methods-group text" transform="translate(-172.09375, -6)"><g class="label" style="" transform="translate(0,-11.25)"><foreignObject width="291.09375" height="22.5"><div xmlns="http://www.w3.org/1999/xhtml" style="display: table-cell; white-space: nowrap; line-height: 1.5; max-width: 408px; text-align: center;"><span class="nodeLabel markdown-node-label" style=""><p>+startDebug(flowId: string) : Promise&lt;void&gt;</p></span></div></foreignObject></g><g class="label" style="" transform="translate(0,11.25)"><foreignObject width="157.109375" height="22.5"><div xmlns="http://www.w3.org/1999/xhtml" style="display: table-cell; white-space: nowrap; line-height: 1.5; max-width: 265px; text-align: center;"><span class="nodeLabel markdown-node-label" style=""><p>+step() : Promise&lt;void&gt;</p></span></div></foreignObject></g><g class="label" style="" transform="translate(0,33.75)"><foreignObject width="131.1875" height="22.5"><div xmlns="http://www.w3.org/1999/xhtml" style="display: table-cell; white-space: nowrap; line-height: 1.5; max-width: 197px; text-align: center;"><span class="nodeLabel markdown-node-label" style=""><p>+stopDebug() : void</p></span></div></foreignObject></g><g class="label" style="" transform="translate(0,56.25)"><foreignObject width="167.625" height="22.5"><div xmlns="http://www.w3.org/1999/xhtml" style="display: table-cell; white-space: nowrap; line-height: 1.5; max-width: 236px; text-align: center;"><span class="nodeLabel markdown-node-label" style=""><p>+isDebugging() : boolean</p></span></div></foreignObject></g><g class="label" style="" transform="translate(0,78.75)"><foreignObject width="295.078125" height="22.5"><div xmlns="http://www.w3.org/1999/xhtml" style="display: table-cell; white-space: nowrap; line-height: 1.5; max-width: 372px; text-align: center;"><span class="nodeLabel markdown-node-label" style=""><p>+getIntermediateResults() : NodeResultMap</p></span></div></foreignObject></g><g class="label" style="" transform="translate(0,101.25)"><foreignObject width="255" height="22.5"><div xmlns="http://www.w3.org/1999/xhtml" style="display: table-cell; white-space: nowrap; line-height: 1.5; max-width: 329px; text-align: center;"><span class="nodeLabel markdown-node-label" style=""><p>+onDebugEvent(handler) : Disposable</p></span></div></foreignObject></g></g><g class="divider" style=""><path d="M-184.09375 -60 C-40.233121096651956 -60, 103.62750780669609 -60, 184.09375 -60 M-184.09375 -60 C-49.287164214067474 -60, 85.51942157186505 -60, 184.09375 -60" stroke="hsl(214.2857142857, 54.5945945946%, 82.7450980392%)" stroke-width="1.3" fill="none" stroke-dasharray="0 0" style=""></path></g><g class="divider" style=""><path d="M-184.09375 -36 C-109.93963575703658 -36, -35.78552151407317 -36, 184.09375 -36 M-184.09375 -36 C-41.82346749562544 -36, 100.44681500874913 -36, 184.09375 -36" stroke="hsl(214.2857142857, 54.5945945946%, 82.7450980392%)" stroke-width="1.3" fill="none" stroke-dasharray="0 0" style=""></path></g></g><g class="node default" id="classId-DebugService-1" transform="translate(258.1796875, 565.75)"><g class="basic label-container"><path d="M-182.9921875 -249.75 L182.9921875 -249.75 L182.9921875 249.75 L-182.9921875 249.75" stroke="none" stroke-width="0" fill="#DBEAFE" style=""></path><path d="M-182.9921875 -249.75 C-38.32443898286803 -249.75, 106.34330953426394 -249.75, 182.9921875 -249.75 M-182.9921875 -249.75 C-79.74109636258454 -249.75, 23.509994774830915 -249.75, 182.9921875 -249.75 M182.9921875 -249.75 C182.9921875 -144.24739917271745, 182.9921875 -38.74479834543487, 182.9921875 249.75 M182.9921875 -249.75 C182.9921875 -132.12353071714273, 182.9921875 -14.497061434285428, 182.9921875 249.75 M182.9921875 249.75 C98.59342111185727 249.75, 14.194654723714535 249.75, -182.9921875 249.75 M182.9921875 249.75 C67.6377851070507 249.75, -47.71661728589859 249.75, -182.9921875 249.75 M-182.9921875 249.75 C-182.9921875 143.06382092025177, -182.9921875 36.37764184050354, -182.9921875 -249.75 M-182.9921875 249.75 C-182.9921875 76.34650095203372, -182.9921875 -97.05699809593256, -182.9921875 -249.75" stroke="hsl(214.2857142857, 54.5945945946%, 82.7450980392%)" stroke-width="1.3" fill="none" stroke-dasharray="0 0" style=""></path></g><g class="annotation-group text" transform="translate(0, -225.75)"></g><g class="label-group text" transform="translate(-46.90625, -225.75)"><g class="label" style="font-weight: bolder" transform="translate(0,-11.25)"><foreignObject width="93.8125" height="22.5"><div xmlns="http://www.w3.org/1999/xhtml" style="display: table-cell; white-space: nowrap; line-height: 1.5; max-width: 148px; text-align: center;"><span class="nodeLabel markdown-node-label" style=""><p>DebugService</p></span></div></foreignObject></g></g><g class="members-group text" transform="translate(-170.9921875, -179.25)"><g class="label" style="" transform="translate(0,-11.25)"><foreignObject width="174.78125" height="22.5"><div xmlns="http://www.w3.org/1999/xhtml" style="display: table-cell; white-space: nowrap; line-height: 1.5; max-width: 244px; text-align: center;"><span class="nodeLabel markdown-node-label" style=""><p>-flowService: IFlowService</p></span></div></foreignObject></g><g class="label" style="" transform="translate(0,11.25)"><foreignObject width="281.234375" height="22.5"><div xmlns="http://www.w3.org/1999/xhtml" style="display: table-cell; white-space: nowrap; line-height: 1.5; max-width: 357px; text-align: center;"><span class="nodeLabel markdown-node-label" style=""><p>-executorRegistry: INodeExecutorRegistry</p></span></div></foreignObject></g><g class="label" style="" transform="translate(0,33.75)"><foreignObject width="211.34375" height="22.5"><div xmlns="http://www.w3.org/1999/xhtml" style="display: table-cell; white-space: nowrap; line-height: 1.5; max-width: 283px; text-align: center;"><span class="nodeLabel markdown-node-label" style=""><p>-historyService: IHistoryService</p></span></div></foreignObject></g><g class="label" style="" transform="translate(0,56.25)"><foreignObject width="140.5625" height="22.5"><div xmlns="http://www.w3.org/1999/xhtml" style="display: table-cell; white-space: nowrap; line-height: 1.5; max-width: 207px; text-align: center;"><span class="nodeLabel markdown-node-label" style=""><p>-debugging: boolean</p></span></div></foreignObject></g><g class="label" style="" transform="translate(0,78.75)"><foreignObject width="146.359375" height="22.5"><div xmlns="http://www.w3.org/1999/xhtml" style="display: table-cell; white-space: nowrap; line-height: 1.5; max-width: 214px; text-align: center;"><span class="nodeLabel markdown-node-label" style=""><p>-currentFlowId: string</p></span></div></foreignObject></g><g class="label" style="" transform="translate(0,101.25)"><foreignObject width="204.015625" height="22.5"><div xmlns="http://www.w3.org/1999/xhtml" style="display: table-cell; white-space: nowrap; line-height: 1.5; max-width: 275px; text-align: center;"><span class="nodeLabel markdown-node-label" style=""><p>-sortedNodes: NodeInstance[]</p></span></div></foreignObject></g><g class="label" style="" transform="translate(0,123.75)"><foreignObject width="109.90625" height="22.5"><div xmlns="http://www.w3.org/1999/xhtml" style="display: table-cell; white-space: nowrap; line-height: 1.5; max-width: 175px; text-align: center;"><span class="nodeLabel markdown-node-label" style=""><p>-cursor: number</p></span></div></foreignObject></g><g class="label" style="" transform="translate(0,146.25)"><foreignObject width="258.59375" height="22.5"><div xmlns="http://www.w3.org/1999/xhtml" style="display: table-cell; white-space: nowrap; line-height: 1.5; max-width: 333px; text-align: center;"><span class="nodeLabel markdown-node-label" style=""><p>-intermediateResults: NodeResultMap</p></span></div></foreignObject></g><g class="label" style="" transform="translate(0,168.75)"><foreignObject width="266.78125" height="22.5"><div xmlns="http://www.w3.org/1999/xhtml" style="display: table-cell; white-space: nowrap; line-height: 1.5; max-width: 382px; text-align: center;"><span class="nodeLabel markdown-node-label" style=""><p>-outputMap: Map&lt;string, PortDataMap&gt;</p></span></div></foreignObject></g><g class="label" style="" transform="translate(0,191.25)"><foreignObject width="153.125" height="22.5"><div xmlns="http://www.w3.org/1999/xhtml" style="display: table-cell; white-space: nowrap; line-height: 1.5; max-width: 221px; text-align: center;"><span class="nodeLabel markdown-node-label" style=""><p>-edges: EdgeInstance[]</p></span></div></foreignObject></g><g class="label" style="" transform="translate(0,213.75)"><foreignObject width="115.328125" height="22.5"><div xmlns="http://www.w3.org/1999/xhtml" style="display: table-cell; white-space: nowrap; line-height: 1.5; max-width: 181px; text-align: center;"><span class="nodeLabel markdown-node-label" style=""><p>-startedAt: string</p></span></div></foreignObject></g><g class="label" style="" transform="translate(0,236.25)"><foreignObject width="246.265625" height="22.5"><div xmlns="http://www.w3.org/1999/xhtml" style="display: table-cell; white-space: nowrap; line-height: 1.5; max-width: 359px; text-align: center;"><span class="nodeLabel markdown-node-label" style=""><p>-emitter: EventEmitter&lt;DebugEvent&gt;</p></span></div></foreignObject></g></g><g class="methods-group text" transform="translate(-170.9921875, 114.75)"><g class="label" style="" transform="translate(0,-11.25)"><foreignObject width="291.09375" height="22.5"><div xmlns="http://www.w3.org/1999/xhtml" style="display: table-cell; white-space: nowrap; line-height: 1.5; max-width: 408px; text-align: center;"><span class="nodeLabel markdown-node-label" style=""><p>+startDebug(flowId: string) : Promise&lt;void&gt;</p></span></div></foreignObject></g><g class="label" style="" transform="translate(0,11.25)"><foreignObject width="157.109375" height="22.5"><div xmlns="http://www.w3.org/1999/xhtml" style="display: table-cell; white-space: nowrap; line-height: 1.5; max-width: 265px; text-align: center;"><span class="nodeLabel markdown-node-label" style=""><p>+step() : Promise&lt;void&gt;</p></span></div></foreignObject></g><g class="label" style="" transform="translate(0,33.75)"><foreignObject width="131.1875" height="22.5"><div xmlns="http://www.w3.org/1999/xhtml" style="display: table-cell; white-space: nowrap; line-height: 1.5; max-width: 197px; text-align: center;"><span class="nodeLabel markdown-node-label" style=""><p>+stopDebug() : void</p></span></div></foreignObject></g><g class="label" style="" transform="translate(0,56.25)"><foreignObject width="167.625" height="22.5"><div xmlns="http://www.w3.org/1999/xhtml" style="display: table-cell; white-space: nowrap; line-height: 1.5; max-width: 236px; text-align: center;"><span class="nodeLabel markdown-node-label" style=""><p>+isDebugging() : boolean</p></span></div></foreignObject></g><g class="label" style="" transform="translate(0,78.75)"><foreignObject width="295.078125" height="22.5"><div xmlns="http://www.w3.org/1999/xhtml" style="display: table-cell; white-space: nowrap; line-height: 1.5; max-width: 372px; text-align: center;"><span class="nodeLabel markdown-node-label" style=""><p>+getIntermediateResults() : NodeResultMap</p></span></div></foreignObject></g><g class="label" style="" transform="translate(0,101.25)"><foreignObject width="255" height="22.5"><div xmlns="http://www.w3.org/1999/xhtml" style="display: table-cell; white-space: nowrap; line-height: 1.5; max-width: 329px; text-align: center;"><span class="nodeLabel markdown-node-label" style=""><p>+onDebugEvent(handler) : Disposable</p></span></div></foreignObject></g></g><g class="divider" style=""><path d="M-182.9921875 -203.25 C-44.85848618253678 -203.25, 93.27521513492644 -203.25, 182.9921875 -203.25 M-182.9921875 -203.25 C-51.40120538269076 -203.25, 80.18977673461848 -203.25, 182.9921875 -203.25" stroke="hsl(214.2857142857, 54.5945945946%, 82.7450980392%)" stroke-width="1.3" fill="none" stroke-dasharray="0 0" style=""></path></g><g class="divider" style=""><path d="M-182.9921875 90.75 C-59.054511418369245 90.75, 64.88316466326151 90.75, 182.9921875 90.75 M-182.9921875 90.75 C-74.41782616490141 90.75, 34.156535170197174 90.75, 182.9921875 90.75" stroke="hsl(214.2857142857, 54.5945945946%, 82.7450980392%)" stroke-width="1.3" fill="none" stroke-dasharray="0 0" style=""></path></g></g><g class="node default" id="classId-IFlowService-2" transform="translate(62.9453125, 940.5)"><g class="basic label-container"><path d="M-54.9453125 -52.5 L54.9453125 -52.5 L54.9453125 52.5 L-54.9453125 52.5" stroke="none" stroke-width="0" fill="#DBEAFE" style=""></path><path d="M-54.9453125 -52.5 C-26.633228867023753 -52.5, 1.6788547659524937 -52.5, 54.9453125 -52.5 M-54.9453125 -52.5 C-26.148632749296727 -52.5, 2.648047001406546 -52.5, 54.9453125 -52.5 M54.9453125 -52.5 C54.9453125 -14.93654386014476, 54.9453125 22.62691227971048, 54.9453125 52.5 M54.9453125 -52.5 C54.9453125 -13.270464457640223, 54.9453125 25.959071084719554, 54.9453125 52.5 M54.9453125 52.5 C24.115911932736456 52.5, -6.7134886345270885 52.5, -54.9453125 52.5 M54.9453125 52.5 C25.61435717662053 52.5, -3.7165981467589404 52.5, -54.9453125 52.5 M-54.9453125 52.5 C-54.9453125 25.965697476663667, -54.9453125 -0.5686050466726655, -54.9453125 -52.5 M-54.9453125 52.5 C-54.9453125 29.63718819289142, -54.9453125 6.774376385782837, -54.9453125 -52.5" stroke="hsl(214.2857142857, 54.5945945946%, 82.7450980392%)" stroke-width="1.3" fill="none" stroke-dasharray="0 0" style=""></path></g><g class="annotation-group text" transform="translate(-38.4453125, -28.5)"><g class="label" style="" transform="translate(0,-11.25)"><foreignObject width="76.890625" height="22.5"><div xmlns="http://www.w3.org/1999/xhtml" style="display: table-cell; white-space: nowrap; line-height: 1.5; max-width: 132px; text-align: center;"><span class="nodeLabel markdown-node-label" style=""><p>«interface»</p></span></div></foreignObject></g></g><g class="label-group text" transform="translate(-42.9453125, -6)"><g class="label" style="font-weight: bolder" transform="translate(0,-11.25)"><foreignObject width="85.890625" height="22.5"><div xmlns="http://www.w3.org/1999/xhtml" style="display: table-cell; white-space: nowrap; line-height: 1.5; max-width: 140px; text-align: center;"><span class="nodeLabel markdown-node-label" style=""><p>IFlowService</p></span></div></foreignObject></g></g><g class="members-group text" transform="translate(-42.9453125, 40.5)"></g><g class="methods-group text" transform="translate(-42.9453125, 70.5)"></g><g class="divider" style=""><path d="M-54.9453125 16.5 C-14.561193707234274 16.5, 25.822925085531452 16.5, 54.9453125 16.5 M-54.9453125 16.5 C-30.097526055486945 16.5, -5.24973961097389 16.5, 54.9453125 16.5" stroke="hsl(214.2857142857, 54.5945945946%, 82.7450980392%)" stroke-width="1.3" fill="none" stroke-dasharray="0 0" style=""></path></g><g class="divider" style=""><path d="M-54.9453125 34.5 C-20.214621601158242 34.5, 14.516069297683515 34.5, 54.9453125 34.5 M-54.9453125 34.5 C-23.336611147515885 34.5, 8.27209020496823 34.5, 54.9453125 34.5" stroke="hsl(214.2857142857, 54.5945945946%, 82.7450980392%)" stroke-width="1.3" fill="none" stroke-dasharray="0 0" style=""></path></g></g><g class="node default" id="classId-INodeExecutorRegistry-3" transform="translate(258.1796875, 940.5)"><g class="basic label-container"><path d="M-90.2890625 -52.5 L90.2890625 -52.5 L90.2890625 52.5 L-90.2890625 52.5" stroke="none" stroke-width="0" fill="#DBEAFE" style=""></path><path d="M-90.2890625 -52.5 C-21.905258713973993 -52.5, 46.478545072052015 -52.5, 90.2890625 -52.5 M-90.2890625 -52.5 C-25.474733265721994 -52.5, 39.33959596855601 -52.5, 90.2890625 -52.5 M90.2890625 -52.5 C90.2890625 -17.71978626171454, 90.2890625 17.060427476570922, 90.2890625 52.5 M90.2890625 -52.5 C90.2890625 -20.76044377548396, 90.2890625 10.97911244903208, 90.2890625 52.5 M90.2890625 52.5 C29.492695569122347 52.5, -31.303671361755306 52.5, -90.2890625 52.5 M90.2890625 52.5 C44.41210093922841 52.5, -1.4648606215431812 52.5, -90.2890625 52.5 M-90.2890625 52.5 C-90.2890625 28.691918959909945, -90.2890625 4.883837919819889, -90.2890625 -52.5 M-90.2890625 52.5 C-90.2890625 27.662186139654892, -90.2890625 2.8243722793097845, -90.2890625 -52.5" stroke="hsl(214.2857142857, 54.5945945946%, 82.7450980392%)" stroke-width="1.3" fill="none" stroke-dasharray="0 0" style=""></path></g><g class="annotation-group text" transform="translate(-38.4453125, -28.5)"><g class="label" style="" transform="translate(0,-11.25)"><foreignObject width="76.890625" height="22.5"><div xmlns="http://www.w3.org/1999/xhtml" style="display: table-cell; white-space: nowrap; line-height: 1.5; max-width: 132px; text-align: center;"><span class="nodeLabel markdown-node-label" style=""><p>«interface»</p></span></div></foreignObject></g></g><g class="label-group text" transform="translate(-78.2890625, -6)"><g class="label" style="font-weight: bolder" transform="translate(0,-11.25)"><foreignObject width="156.578125" height="22.5"><div xmlns="http://www.w3.org/1999/xhtml" style="display: table-cell; white-space: nowrap; line-height: 1.5; max-width: 214px; text-align: center;"><span class="nodeLabel markdown-node-label" style=""><p>INodeExecutorRegistry</p></span></div></foreignObject></g></g><g class="members-group text" transform="translate(-78.2890625, 40.5)"></g><g class="methods-group text" transform="translate(-78.2890625, 70.5)"></g><g class="divider" style=""><path d="M-90.2890625 16.5 C-19.36698279075128 16.5, 51.55509691849744 16.5, 90.2890625 16.5 M-90.2890625 16.5 C-45.2126547527911 16.5, -0.13624700558220582 16.5, 90.2890625 16.5" stroke="hsl(214.2857142857, 54.5945945946%, 82.7450980392%)" stroke-width="1.3" fill="none" stroke-dasharray="0 0" style=""></path></g><g class="divider" style=""><path d="M-90.2890625 34.5 C-37.537262076683504 34.5, 15.214538346632992 34.5, 90.2890625 34.5 M-90.2890625 34.5 C-34.83648942784942 34.5, 20.616083644301156 34.5, 90.2890625 34.5" stroke="hsl(214.2857142857, 54.5945945946%, 82.7450980392%)" stroke-width="1.3" fill="none" stroke-dasharray="0 0" style=""></path></g></g><g class="node default" id="classId-IHistoryService-4" transform="translate(462.421875, 940.5)"><g class="basic label-container"><path d="M-63.953125 -52.5 L63.953125 -52.5 L63.953125 52.5 L-63.953125 52.5" stroke="none" stroke-width="0" fill="#DBEAFE" style=""></path><path d="M-63.953125 -52.5 C-22.835429467380685 -52.5, 18.28226606523863 -52.5, 63.953125 -52.5 M-63.953125 -52.5 C-16.522263311020637 -52.5, 30.908598377958725 -52.5, 63.953125 -52.5 M63.953125 -52.5 C63.953125 -31.289956017472324, 63.953125 -10.079912034944648, 63.953125 52.5 M63.953125 -52.5 C63.953125 -30.137689956515153, 63.953125 -7.7753799130303065, 63.953125 52.5 M63.953125 52.5 C27.610208704718787 52.5, -8.732707590562427 52.5, -63.953125 52.5 M63.953125 52.5 C35.678196208321566 52.5, 7.403267416643132 52.5, -63.953125 52.5 M-63.953125 52.5 C-63.953125 11.03124706740013, -63.953125 -30.43750586519974, -63.953125 -52.5 M-63.953125 52.5 C-63.953125 14.016834113275571, -63.953125 -24.466331773448857, -63.953125 -52.5" stroke="hsl(214.2857142857, 54.5945945946%, 82.7450980392%)" stroke-width="1.3" fill="none" stroke-dasharray="0 0" style=""></path></g><g class="annotation-group text" transform="translate(-38.4453125, -28.5)"><g class="label" style="" transform="translate(0,-11.25)"><foreignObject width="76.890625" height="22.5"><div xmlns="http://www.w3.org/1999/xhtml" style="display: table-cell; white-space: nowrap; line-height: 1.5; max-width: 132px; text-align: center;"><span class="nodeLabel markdown-node-label" style=""><p>«interface»</p></span></div></foreignObject></g></g><g class="label-group text" transform="translate(-51.953125, -6)"><g class="label" style="font-weight: bolder" transform="translate(0,-11.25)"><foreignObject width="103.90625" height="22.5"><div xmlns="http://www.w3.org/1999/xhtml" style="display: table-cell; white-space: nowrap; line-height: 1.5; max-width: 159px; text-align: center;"><span class="nodeLabel markdown-node-label" style=""><p>IHistoryService</p></span></div></foreignObject></g></g><g class="members-group text" transform="translate(-51.953125, 40.5)"></g><g class="methods-group text" transform="translate(-51.953125, 70.5)"></g><g class="divider" style=""><path d="M-63.953125 16.5 C-34.667810878434075 16.5, -5.38249675686815 16.5, 63.953125 16.5 M-63.953125 16.5 C-35.97674486627086 16.5, -8.000364732541726 16.5, 63.953125 16.5" stroke="hsl(214.2857142857, 54.5945945946%, 82.7450980392%)" stroke-width="1.3" fill="none" stroke-dasharray="0 0" style=""></path></g><g class="divider" style=""><path d="M-63.953125 34.5 C-16.932979858686764 34.5, 30.087165282626472 34.5, 63.953125 34.5 M-63.953125 34.5 C-28.103620423081722 34.5, 7.745884153836556 34.5, 63.953125 34.5" stroke="hsl(214.2857142857, 54.5945945946%, 82.7450980392%)" stroke-width="1.3" fill="none" stroke-dasharray="0 0" style=""></path></g></g></g></g></g></svg>