<?xml version="1.0" encoding="UTF-8" standalone="no"?>
<!DOCTYPE svg PUBLIC "-//W3C//DTD SVG 1.1//EN"
 "http://www.w3.org/Graphics/SVG/1.1/DTD/svg11.dtd">
<!-- Generated by graphviz version 9.0.0 (20230911.1827)
 -->
<!-- Title: outside_in_tdd Pages: 1 -->
<svg width="470pt" height="373pt"
 viewBox="0.00 0.00 470.00 373.00" xmlns="http://www.w3.org/2000/svg" xmlns:xlink="http://www.w3.org/1999/xlink">
<g id="graph0" class="graph" transform="scale(1 1) rotate(0) translate(4 369)">
<title>outside_in_tdd</title>
<polygon fill="#fafaf8" stroke="none" points="-4,4 -4,-369 466,-369 466,4 -4,4"/>
<!-- BD -->
<g id="node1" class="node">
<title>BD</title>
<path fill="#dbeafe" stroke="#3b82f6" d="M93.25,-355.25C93.25,-355.25 12,-355.25 12,-355.25 6,-355.25 0,-349.25 0,-343.25 0,-343.25 0,-320.25 0,-320.25 0,-314.25 6,-308.25 12,-308.25 12,-308.25 93.25,-308.25 93.25,-308.25 99.25,-308.25 105.25,-314.25 105.25,-320.25 105.25,-320.25 105.25,-343.25 105.25,-343.25 105.25,-349.25 99.25,-355.25 93.25,-355.25"/>
<text text-anchor="middle" x="52.62" y="-338.9" font-family="Helvetica,sans-Serif" font-size="13.00" fill="#1e40af">1. BD 完了</text>
<text text-anchor="middle" x="52.62" y="-319.4" font-family="Helvetica,sans-Serif" font-size="13.00" fill="#1e40af">Interface 定義</text>
</g>
<!-- DD -->
<g id="node2" class="node">
<title>DD</title>
<path fill="#ede9fe" stroke="#8b5cf6" d="M86,-206C86,-206 27.25,-206 27.25,-206 21.25,-206 15.25,-200 15.25,-194 15.25,-194 15.25,-171 15.25,-171 15.25,-165 21.25,-159 27.25,-159 27.25,-159 86,-159 86,-159 92,-159 98,-165 98,-171 98,-171 98,-194 98,-194 98,-200 92,-206 86,-206"/>
<text text-anchor="middle" x="56.62" y="-189.65" font-family="Helvetica,sans-Serif" font-size="13.00" fill="#5b21b6">5. DD 作成</text>
<text text-anchor="middle" x="56.62" y="-170.15" font-family="Helvetica,sans-Serif" font-size="13.00" fill="#5b21b6">内部設計</text>
</g>
<!-- BD&#45;&gt;DD -->
<g id="edge1" class="edge">
<title>BD&#45;&gt;DD</title>
<path fill="none" stroke="#475569" d="M53.24,-308.06C53.9,-283.92 54.94,-245.45 55.7,-217.64"/>
<polygon fill="#475569" stroke="#475569" points="59.19,-218.06 55.96,-207.97 52.19,-217.87 59.19,-218.06"/>
<text text-anchor="middle" x="72.5" y="-259.05" font-family="Helvetica,sans-Serif" font-size="11.00" fill="#475569">設計を</text>
<text text-anchor="middle" x="72.5" y="-241.8" font-family="Helvetica,sans-Serif" font-size="11.00" fill="#475569">詳細化</text>
</g>
<!-- IT_R -->
<g id="node4" class="node">
<title>IT_R</title>
<path fill="#d1fae5" stroke="#10b981" d="M450,-365C450,-365 289.25,-365 289.25,-365 283.25,-365 277.25,-359 277.25,-353 277.25,-353 277.25,-310.5 277.25,-310.5 277.25,-304.5 283.25,-298.5 289.25,-298.5 289.25,-298.5 450,-298.5 450,-298.5 456,-298.5 462,-304.5 462,-310.5 462,-310.5 462,-353 462,-353 462,-359 456,-365 450,-365"/>
<text text-anchor="middle" x="369.62" y="-348.65" font-family="Helvetica,sans-Serif" font-size="13.00" fill="#065f46">2. IT 作成 → Red</text>
<text text-anchor="middle" x="369.62" y="-329.15" font-family="Helvetica,sans-Serif" font-size="13.00" fill="#065f46">3. Mock 実装</text>
<text text-anchor="middle" x="369.62" y="-309.65" font-family="Helvetica,sans-Serif" font-size="13.00" fill="#065f46">4. IT 確認 → Green (Mock)</text>
</g>
<!-- BD&#45;&gt;IT_R -->
<g id="edge3" class="edge">
<title>BD&#45;&gt;IT_R</title>
<path fill="none" stroke="#94a3b8" stroke-dasharray="5,2" d="M105.68,-331.75C149.21,-331.75 212.14,-331.75 265.64,-331.75"/>
<polygon fill="#94a3b8" stroke="#94a3b8" points="265.39,-335.25 275.39,-331.75 265.39,-328.25 265.39,-335.25"/>
<text text-anchor="middle" x="191.25" y="-337.8" font-family="Helvetica,sans-Serif" font-size="11.00" fill="#64748b">BD ↔ IT</text>
</g>
<!-- IMPL -->
<g id="node3" class="node">
<title>IMPL</title>
<path fill="#dbeafe" stroke="#3b82f6" d="M90.5,-51.25C90.5,-51.25 22.75,-51.25 22.75,-51.25 16.75,-51.25 10.75,-45.25 10.75,-39.25 10.75,-39.25 10.75,-27.25 10.75,-27.25 10.75,-21.25 16.75,-15.25 22.75,-15.25 22.75,-15.25 90.5,-15.25 90.5,-15.25 96.5,-15.25 102.5,-21.25 102.5,-27.25 102.5,-27.25 102.5,-39.25 102.5,-39.25 102.5,-45.25 96.5,-51.25 90.5,-51.25"/>
<text text-anchor="middle" x="56.62" y="-30.65" font-family="Helvetica,sans-Serif" font-size="13.00" fill="#1e40af">7. Real 実装</text>
</g>
<!-- DD&#45;&gt;IMPL -->
<g id="edge2" class="edge">
<title>DD&#45;&gt;IMPL</title>
<path fill="none" stroke="#475569" d="M56.62,-158.81C56.62,-133.09 56.62,-91.11 56.62,-63.08"/>
<polygon fill="#475569" stroke="#475569" points="60.13,-63.17 56.63,-53.17 53.13,-63.17 60.13,-63.17"/>
<text text-anchor="middle" x="67.88" y="-110.92" font-family="Helvetica,sans-Serif" font-size="11.00" fill="#475569">実装</text>
</g>
<!-- UT -->
<g id="node5" class="node">
<title>UT</title>
<path fill="#fef3c7" stroke="#f59e0b" d="M426.25,-206C426.25,-206 309,-206 309,-206 303,-206 297,-200 297,-194 297,-194 297,-171 297,-171 297,-165 303,-159 309,-159 309,-159 426.25,-159 426.25,-159 432.25,-159 438.25,-165 438.25,-171 438.25,-171 438.25,-194 438.25,-194 438.25,-200 432.25,-206 426.25,-206"/>
<text text-anchor="middle" x="367.62" y="-189.65" font-family="Helvetica,sans-Serif" font-size="13.00" fill="#92400e">6. UT 作成 → Red</text>
<text text-anchor="middle" x="367.62" y="-170.15" font-family="Helvetica,sans-Serif" font-size="13.00" fill="#92400e">8. UT 確認 → Green</text>
</g>
<!-- DD&#45;&gt;UT -->
<g id="edge4" class="edge">
<title>DD&#45;&gt;UT</title>
<path fill="none" stroke="#94a3b8" stroke-dasharray="5,2" d="M98.25,-182.5C145.9,-182.5 225.16,-182.5 285.39,-182.5"/>
<polygon fill="#94a3b8" stroke="#94a3b8" points="285.28,-186 295.28,-182.5 285.28,-179 285.28,-186"/>
<text text-anchor="middle" x="197.5" y="-188.55" font-family="Helvetica,sans-Serif" font-size="11.00" fill="#64748b">DD ↔ UT</text>
</g>
<!-- IT_G -->
<g id="node6" class="node">
<title>IT_G</title>
<path fill="#d1fae5" stroke="#10b981" d="M449.12,-66.5C449.12,-66.5 286.12,-66.5 286.12,-66.5 280.12,-66.5 274.12,-60.5 274.12,-54.5 274.12,-54.5 274.12,-12 274.12,-12 274.12,-6 280.12,0 286.12,0 286.12,0 449.12,0 449.12,0 455.12,0 461.12,-6 461.12,-12 461.12,-12 461.12,-54.5 461.12,-54.5 461.12,-60.5 455.12,-66.5 449.12,-66.5"/>
<text text-anchor="middle" x="367.62" y="-50.15" font-family="Helvetica,sans-Serif" font-size="13.00" fill="#065f46">9. Mock→Real 差替</text>
<text text-anchor="middle" x="367.62" y="-30.65" font-family="Helvetica,sans-Serif" font-size="13.00" fill="#065f46">10. IT 確認 → Green (Real)</text>
<text text-anchor="middle" x="367.62" y="-11.15" font-family="Helvetica,sans-Serif" font-size="13.00" fill="#065f46">＝ 実動作保証</text>
</g>
<!-- IMPL&#45;&gt;IT_G -->
<g id="edge5" class="edge">
<title>IMPL&#45;&gt;IT_G</title>
<path fill="none" stroke="#94a3b8" stroke-dasharray="5,2" d="M102.85,-33.25C144.79,-33.25 208.18,-33.25 262.42,-33.25"/>
<polygon fill="#94a3b8" stroke="#94a3b8" points="262.33,-36.75 272.33,-33.25 262.33,-29.75 262.33,-36.75"/>
<text text-anchor="middle" x="188.31" y="-43.05" font-family="Helvetica,sans-Serif" font-size="11.00" fill="#64748b">差し替え</text>
</g>
<!-- UT&#45;&gt;IT_R -->
<g id="edge7" class="edge">
<title>UT&#45;&gt;IT_R</title>
<path fill="none" stroke="#475569" d="M367.94,-206.49C368.23,-227.91 368.67,-260.42 369.03,-286.81"/>
<polygon fill="#475569" stroke="#475569" points="365.52,-286.61 369.16,-296.56 372.52,-286.51 365.52,-286.61"/>
</g>
<!-- IT_G&#45;&gt;UT -->
<g id="edge6" class="edge">
<title>IT_G&#45;&gt;UT</title>
<path fill="none" stroke="#475569" d="M367.62,-66.8C367.62,-90.79 367.62,-123.33 367.62,-147.62"/>
<polygon fill="#475569" stroke="#475569" points="364.13,-147.3 367.63,-157.3 371.13,-147.3 364.13,-147.3"/>
<text text-anchor="middle" x="390.12" y="-119.55" font-family="Helvetica,sans-Serif" font-size="11.00" fill="#475569">検証</text>
<text text-anchor="middle" x="390.12" y="-102.3" font-family="Helvetica,sans-Serif" font-size="11.00" fill="#475569">範囲拡大</text>
</g>
</g>
</svg>
